<svg xmlns="http://www.w3.org/2000/svg" xmlns:xlink="http://www.w3.org/1999/xlink" width="264" zoomAndPan="magnify" viewBox="0 0 198 56.249996" height="75" preserveAspectRatio="xMidYMid meet" version="1.0"><defs><g/><clipPath id="d4ff845c56"><path d="M 1.300781 2.101562 L 63.625 2.101562 L 63.625 53.484375 L 1.300781 53.484375 Z M 1.300781 2.101562 " clip-rule="nonzero"/></clipPath><clipPath id="2b3cc79080"><path d="M 21.765625 15.222656 L 39.609375 15.222656 L 39.609375 33.0625 L 21.765625 33.0625 Z M 21.765625 15.222656 " clip-rule="nonzero"/></clipPath><clipPath id="77fc3ea884"><path d="M 33.75 22.714844 C 33.75 22.183594 34.183594 21.75 34.714844 21.75 C 35.25 21.75 35.683594 22.183594 35.683594 22.714844 C 35.683594 23.25 35.25 23.679688 34.714844 23.679688 C 34.183594 23.679688 33.75 23.25 33.75 22.714844 Z M 39.648438 26.953125 C 39.679688 27.742188 39.046875 28.394531 38.265625 28.394531 C 37.859375 28.394531 37.496094 28.222656 37.246094 27.945312 L 30.492188 31.371094 C 30.507812 31.457031 30.519531 31.546875 30.519531 31.636719 C 30.519531 32.421875 29.867188 33.050781 29.078125 33.023438 C 28.359375 32.996094 27.773438 32.410156 27.746094 31.691406 C 27.71875 30.902344 28.347656 30.253906 29.132812 30.253906 C 29.152344 30.253906 29.171875 30.253906 29.191406 30.253906 L 30.15625 27.308594 C 29.785156 27.058594 29.542969 26.636719 29.542969 26.160156 C 29.542969 25.800781 29.679688 25.472656 29.902344 25.226562 L 28.132812 22.386719 C 28.011719 22.421875 27.882812 22.441406 27.746094 22.441406 L 27.742188 22.441406 C 27.539062 22.441406 27.347656 22.554688 27.25 22.734375 L 26.710938 23.710938 C 26.378906 24.3125 26.398438 25.039062 26.75 25.628906 C 27.003906 26.042969 27.144531 26.535156 27.132812 27.058594 C 27.105469 28.488281 25.941406 29.65625 24.511719 29.683594 C 23.015625 29.714844 21.792969 28.519531 21.78125 27.03125 C 21.769531 25.582031 22.929688 24.375 24.382812 24.332031 C 24.390625 24.332031 24.402344 24.332031 24.410156 24.332031 C 25.09375 24.320312 25.722656 23.945312 26.050781 23.347656 L 26.597656 22.359375 C 26.695312 22.183594 26.683594 21.96875 26.578125 21.800781 C 26.441406 21.585938 26.359375 21.332031 26.359375 21.058594 C 26.359375 20.289062 26.984375 19.667969 27.75 19.671875 C 28.488281 19.671875 29.105469 20.269531 29.132812 21.007812 C 29.144531 21.386719 29.003906 21.734375 28.769531 21.988281 L 30.539062 24.828125 C 30.609375 24.808594 30.675781 24.792969 30.746094 24.785156 L 31.617188 18.816406 C 31.683594 18.355469 31.542969 17.890625 31.242188 17.53125 C 31.046875 17.289062 30.925781 16.984375 30.925781 16.648438 C 30.925781 15.863281 31.578125 15.234375 32.367188 15.265625 C 33.085938 15.292969 33.667969 15.875 33.695312 16.59375 C 33.71875 17.097656 33.464844 17.546875 33.074219 17.804688 C 32.695312 18.054688 32.429688 18.449219 32.363281 18.898438 L 31.492188 24.894531 C 31.910156 25.082031 32.21875 25.46875 32.296875 25.9375 L 36.984375 26.480469 C 37.195312 25.960938 37.714844 25.601562 38.316406 25.625 C 39.035156 25.652344 39.621094 26.234375 39.648438 26.953125 Z M 36.90625 27.277344 C 36.902344 27.261719 36.898438 27.246094 36.894531 27.226562 L 32.207031 26.683594 C 32 27.1875 31.503906 27.542969 30.925781 27.542969 C 30.90625 27.542969 30.886719 27.542969 30.867188 27.542969 L 29.902344 30.488281 C 29.996094 30.546875 30.078125 30.621094 30.152344 30.699219 Z M 36.90625 27.277344 " clip-rule="nonzero"/></clipPath><clipPath id="d941e67b19"><path d="M 193 27 L 196.695312 27 L 196.695312 34 L 193 34 Z M 193 27 " clip-rule="nonzero"/></clipPath></defs><g clip-path="url(#d4ff845c56)"><path fill="#2072bd" d="M 16.988281 10.09375 C 17.824219 9.585938 18.710938 9.460938 19.652344 9.710938 C 20.597656 9.957031 21.316406 10.5 21.8125 11.339844 C 22.292969 12.1875 22.417969 13.082031 22.191406 14.027344 C 21.949219 14.96875 21.410156 15.6875 20.574219 16.183594 C 19.839844 16.628906 19.210938 17.011719 18.855469 17.222656 C 18.457031 17.476562 18.101562 17.707031 17.828125 17.917969 L 17.765625 17.960938 C 17.59375 18.082031 17.433594 18.214844 17.28125 18.363281 C 17.207031 18.4375 17.144531 18.523438 17.09375 18.617188 C 17.042969 18.710938 17.003906 18.8125 16.96875 18.914062 C 16.925781 19.105469 16.90625 19.335938 16.863281 19.570312 C 16.84375 19.949219 16.820312 20.394531 16.800781 20.964844 L 16.800781 32.683594 C 16.800781 35.285156 16.800781 36.597656 17.09375 37.105469 C 17.148438 37.1875 17.210938 37.265625 17.28125 37.335938 C 17.433594 37.488281 17.597656 37.628906 17.765625 37.757812 L 17.828125 37.800781 C 18.394531 38.226562 19.335938 38.773438 20.574219 39.515625 L 28.628906 44.335938 C 29.761719 45.035156 30.621094 45.542969 31.292969 45.882812 C 31.617188 46.078125 31.964844 46.207031 32.339844 46.261719 C 32.707031 46.203125 33.050781 46.078125 33.367188 45.882812 C 34.039062 45.542969 34.898438 45.035156 36.054688 44.335938 L 44.085938 39.515625 C 44.796875 39.09375 45.429688 38.710938 45.785156 38.5 C 46.226562 38.226562 46.601562 37.972656 46.917969 37.738281 L 46.9375 37.71875 C 47.097656 37.605469 47.246094 37.476562 47.378906 37.335938 C 47.449219 37.265625 47.511719 37.1875 47.566406 37.105469 C 47.613281 37.015625 47.648438 36.925781 47.671875 36.828125 C 47.722656 36.648438 47.757812 36.464844 47.777344 36.277344 C 47.820312 35.898438 47.839844 35.476562 47.859375 35.03125 C 47.859375 34.523438 47.859375 33.972656 47.882812 33.339844 L 47.859375 33.339844 C 47.859375 32.367188 48.203125 31.535156 48.886719 30.84375 C 49.574219 30.144531 50.40625 29.796875 51.382812 29.804688 C 52.355469 29.796875 53.183594 30.144531 53.859375 30.84375 C 54.542969 31.535156 54.886719 32.367188 54.886719 33.339844 C 54.886719 34.101562 54.886719 34.777344 54.867188 35.371094 C 54.84375 36.003906 54.800781 36.574219 54.761719 37.0625 C 54.691406 37.675781 54.570312 38.285156 54.402344 38.878906 C 54.234375 39.46875 54.003906 40.035156 53.710938 40.574219 C 53.394531 41.144531 53.011719 41.667969 52.558594 42.136719 C 52.109375 42.621094 51.613281 43.050781 51.070312 43.429688 C 49.996094 44.207031 48.882812 44.925781 47.734375 45.585938 C 47.683594 45.609375 47.636719 45.636719 47.589844 45.671875 L 39.617188 50.449219 C 36.386719 52.394531 34.753906 53.347656 32.339844 53.347656 C 29.90625 53.347656 28.292969 52.394531 25.042969 50.449219 C 22.359375 48.820312 19.667969 47.207031 16.96875 45.605469 C 15.667969 44.824219 14.660156 44.210938 13.738281 43.535156 C 13.648438 43.484375 13.566406 43.429688 13.488281 43.363281 L 13.214844 43.152344 C 11.160156 44.527344 9.125 45.925781 7.070312 47.277344 C 6.691406 47.535156 6.277344 47.707031 5.832031 47.800781 C 5.382812 47.894531 4.933594 47.902344 4.484375 47.816406 C 4.035156 47.734375 3.621094 47.570312 3.234375 47.324219 C 2.851562 47.074219 2.527344 46.765625 2.265625 46.390625 C 2.210938 46.324219 2.164062 46.25 2.121094 46.179688 C 1.640625 45.382812 1.492188 44.527344 1.679688 43.617188 C 1.859375 42.664062 2.359375 41.914062 3.167969 41.375 L 3.167969 41.355469 L 9.878906 36.851562 C 9.835938 36.449219 9.816406 36.003906 9.796875 35.515625 C 9.773438 34.542969 9.773438 33.675781 9.773438 32.683594 L 9.773438 23.039062 C 9.773438 21.386719 9.773438 20.183594 9.878906 18.914062 L 9.898438 18.871094 L 3.167969 14.34375 C 3.125 14.324219 3.082031 14.28125 3.042969 14.261719 C 2.308594 13.710938 1.851562 12.984375 1.679688 12.082031 C 1.480469 11.121094 1.652344 10.230469 2.203125 9.417969 C 2.734375 8.609375 3.476562 8.105469 4.425781 7.914062 C 5.382812 7.710938 6.265625 7.886719 7.070312 8.445312 L 13.214844 12.566406 C 13.335938 12.460938 13.460938 12.363281 13.589844 12.273438 L 13.695312 12.1875 C 14.179688 11.847656 14.640625 11.53125 15.164062 11.214844 C 15.6875 10.875 16.296875 10.496094 16.988281 10.09375 Z M 18.917969 12.589844 C 18.769531 12.546875 18.628906 12.566406 18.5 12.652344 C 17.828125 13.054688 17.261719 13.394531 16.714844 13.730469 C 16.234375 14.046875 15.8125 14.324219 15.4375 14.597656 C 15.371094 14.65625 15.300781 14.703125 15.226562 14.746094 C 15.082031 14.851562 14.933594 14.980469 14.808594 15.085938 C 14.679688 15.1875 14.558594 15.300781 14.449219 15.421875 C 14.332031 15.558594 14.191406 15.667969 14.03125 15.753906 C 13.871094 15.839844 13.703125 15.894531 13.523438 15.917969 C 13.34375 15.941406 13.167969 15.929688 12.992188 15.890625 C 12.8125 15.847656 12.652344 15.777344 12.5 15.675781 C 10.152344 14.089844 7.71875 12.527344 5.390625 10.898438 C 5.273438 10.832031 5.148438 10.8125 5.011719 10.832031 C 4.859375 10.855469 4.742188 10.933594 4.65625 11.066406 C 4.578125 11.203125 4.546875 11.351562 4.574219 11.511719 C 4.59375 11.640625 4.65625 11.746094 4.761719 11.828125 L 12.289062 16.882812 C 12.535156 17.050781 12.714844 17.269531 12.832031 17.539062 C 12.949219 17.8125 12.984375 18.09375 12.941406 18.386719 C 12.910156 18.511719 12.886719 18.636719 12.878906 18.765625 C 12.855469 18.914062 12.835938 19.0625 12.816406 19.1875 C 12.730469 20.203125 12.730469 21.410156 12.730469 23.039062 L 12.730469 32.683594 C 12.730469 33.824219 12.730469 34.796875 12.753906 35.433594 C 12.761719 36.050781 12.816406 36.664062 12.921875 37.273438 C 12.984375 37.570312 12.960938 37.859375 12.84375 38.144531 C 12.730469 38.425781 12.546875 38.648438 12.292969 38.816406 L 4.804688 43.851562 C 4.671875 43.9375 4.597656 44.054688 4.574219 44.210938 C 4.546875 44.363281 4.574219 44.503906 4.65625 44.632812 C 4.742188 44.765625 4.859375 44.84375 5.011719 44.867188 C 5.167969 44.90625 5.304688 44.875 5.433594 44.78125 L 12.5 40.023438 C 12.792969 39.828125 13.117188 39.75 13.46875 39.785156 C 13.820312 39.820312 14.117188 39.964844 14.367188 40.214844 C 14.535156 40.382812 14.683594 40.507812 14.808594 40.613281 C 14.953125 40.742188 15.101562 40.867188 15.25 40.976562 L 15.351562 41.039062 C 16.171875 41.652344 17.15625 42.242188 18.476562 43.046875 L 26.550781 47.890625 C 29.320312 49.539062 30.703125 50.367188 32.339844 50.367188 C 33.957031 50.367188 35.339844 49.539062 38.109375 47.890625 C 40.792969 46.261719 43.476562 44.648438 46.160156 43.046875 C 47.523438 42.242188 48.550781 41.609375 49.328125 41.039062 C 49.726562 40.757812 50.089844 40.441406 50.417969 40.085938 C 50.691406 39.789062 50.929688 39.464844 51.132812 39.113281 C 51.320312 38.777344 51.464844 38.425781 51.574219 38.054688 C 51.6875 37.617188 51.769531 37.171875 51.824219 36.722656 C 51.867188 36.277344 51.910156 35.8125 51.910156 35.285156 C 51.929688 34.691406 51.929688 34.058594 51.929688 33.339844 C 51.933594 33.1875 51.875 33.058594 51.761719 32.957031 C 51.660156 32.84375 51.535156 32.785156 51.382812 32.789062 C 51.226562 32.785156 51.09375 32.84375 50.984375 32.957031 C 50.871094 33.058594 50.816406 33.1875 50.816406 33.339844 C 50.816406 34.015625 50.816406 34.609375 50.796875 35.117188 C 50.777344 35.6875 50.753906 36.195312 50.710938 36.617188 C 50.675781 36.953125 50.613281 37.285156 50.523438 37.613281 C 50.441406 37.945312 50.316406 38.261719 50.148438 38.5625 C 49.96875 38.882812 49.75 39.171875 49.496094 39.429688 C 49.25 39.675781 48.984375 39.902344 48.699219 40.105469 L 48.65625 40.148438 C 48.300781 40.402344 47.859375 40.699219 47.335938 41.039062 C 46.6875 41.417969 46.183594 41.734375 45.59375 42.074219 L 37.542969 46.917969 C 36.324219 47.636719 35.421875 48.1875 34.691406 48.546875 C 33.960938 48.964844 33.179688 49.199219 32.339844 49.246094 C 31.5 49.203125 30.71875 48.972656 29.992188 48.546875 C 29.257812 48.1875 28.335938 47.636719 27.117188 46.917969 L 19.066406 42.074219 C 17.703125 41.269531 16.695312 40.65625 16.003906 40.148438 L 15.917969 40.066406 C 15.65625 39.867188 15.402344 39.65625 15.164062 39.429688 C 14.910156 39.171875 14.691406 38.882812 14.515625 38.5625 C 13.84375 37.359375 13.84375 35.792969 13.84375 32.683594 L 13.84375 23.039062 C 13.84375 22.425781 13.84375 21.875 13.863281 20.902344 C 13.863281 20.265625 13.886719 19.738281 13.925781 19.292969 C 13.960938 18.921875 14.023438 18.554688 14.117188 18.195312 C 14.199219 17.832031 14.332031 17.484375 14.515625 17.15625 C 14.6875 16.835938 14.902344 16.546875 15.164062 16.289062 C 15.394531 16.054688 15.640625 15.835938 15.898438 15.636719 L 16.003906 15.550781 C 16.339844 15.316406 16.777344 15.023438 17.324219 14.683594 C 17.953125 14.300781 18.476562 13.984375 19.066406 13.625 C 19.199219 13.546875 19.289062 13.433594 19.335938 13.289062 C 19.359375 13.132812 19.335938 12.984375 19.273438 12.84375 C 19.1875 12.714844 19.070312 12.628906 18.917969 12.589844 Z M 34.125 44.296875 C 33.300781 44.800781 32.417969 44.933594 31.480469 44.695312 C 31.140625 44.609375 30.824219 44.476562 30.523438 44.296875 C 30.226562 44.113281 29.957031 43.894531 29.726562 43.632812 C 29.492188 43.375 29.300781 43.085938 29.152344 42.769531 C 29.003906 42.453125 28.902344 42.121094 28.851562 41.773438 C 28.804688 41.429688 28.804688 41.082031 28.855469 40.738281 C 28.90625 40.390625 29.007812 40.0625 29.15625 39.746094 C 29.308594 39.429688 29.5 39.140625 29.734375 38.882812 C 29.96875 38.625 30.238281 38.40625 30.539062 38.226562 L 41.316406 31.730469 C 41.402344 31.6875 41.464844 31.648438 41.546875 31.605469 C 42.34375 31.160156 43.183594 31.054688 44.066406 31.285156 C 44.949219 31.507812 45.640625 32.003906 46.140625 32.769531 C 46.210938 32.851562 46.265625 32.945312 46.308594 33.042969 C 46.515625 33.433594 46.648438 33.84375 46.703125 34.28125 C 46.757812 34.71875 46.730469 35.152344 46.625 35.582031 C 46.515625 36.007812 46.335938 36.402344 46.082031 36.765625 C 45.832031 37.125 45.519531 37.429688 45.15625 37.675781 C 45.070312 37.71875 44.988281 37.78125 44.902344 37.824219 Z M 32.195312 41.800781 C 32.34375 41.84375 32.484375 41.824219 32.613281 41.734375 L 43.5 35.199219 C 43.628906 35.121094 43.710938 35.007812 43.75 34.863281 C 43.789062 34.714844 43.777344 34.574219 43.707031 34.4375 L 43.6875 34.417969 C 43.613281 34.285156 43.5 34.199219 43.351562 34.164062 C 43.203125 34.128906 43.0625 34.152344 42.933594 34.226562 L 32.046875 40.761719 C 31.917969 40.851562 31.835938 40.972656 31.796875 41.121094 C 31.75 41.273438 31.769531 41.414062 31.859375 41.546875 C 31.933594 41.679688 32.042969 41.765625 32.195312 41.800781 Z M 51.445312 12.566406 L 57.59375 8.445312 C 58.398438 7.886719 59.277344 7.710938 60.234375 7.914062 C 61.1875 8.101562 61.929688 8.601562 62.457031 9.417969 L 62.476562 9.4375 C 62.738281 9.828125 62.914062 10.253906 63.003906 10.714844 C 63.09375 11.175781 63.09375 11.636719 63 12.09375 C 62.90625 12.554688 62.730469 12.980469 62.46875 13.371094 C 62.207031 13.757812 61.882812 14.085938 61.492188 14.34375 L 54.78125 18.851562 C 54.824219 19.292969 54.84375 19.78125 54.867188 20.351562 C 54.886719 20.921875 54.886719 21.601562 54.886719 22.359375 C 54.882812 23.339844 54.539062 24.175781 53.859375 24.878906 C 53.175781 25.566406 52.351562 25.914062 51.382812 25.914062 C 50.410156 25.914062 49.578125 25.566406 48.886719 24.878906 C 48.207031 24.175781 47.863281 23.339844 47.859375 22.359375 L 47.882812 22.359375 C 47.859375 21.746094 47.859375 21.175781 47.859375 20.667969 C 47.839844 20.226562 47.820312 19.824219 47.777344 19.441406 L 47.777344 19.398438 C 47.734375 19.1875 47.714844 19.019531 47.671875 18.871094 C 47.652344 18.78125 47.617188 18.695312 47.566406 18.617188 C 47.519531 18.523438 47.453125 18.4375 47.378906 18.363281 C 47.230469 18.222656 47.078125 18.085938 46.917969 17.960938 L 46.855469 17.917969 C 46.507812 17.667969 46.152344 17.433594 45.785156 17.222656 C 45.425781 16.988281 44.796875 16.628906 44.085938 16.183594 L 36.03125 11.363281 C 34.878906 10.664062 33.996094 10.136719 33.367188 9.820312 C 33.046875 9.636719 32.707031 9.515625 32.339844 9.457031 C 31.816406 9.457031 30.746094 10.09375 28.628906 11.363281 L 28.523438 11.425781 C 28.125 11.644531 27.699219 11.777344 27.25 11.832031 C 26.796875 11.882812 26.351562 11.851562 25.914062 11.730469 C 25.476562 11.609375 25.078125 11.410156 24.714844 11.136719 C 24.355469 10.859375 24.058594 10.527344 23.824219 10.136719 C 23.328125 9.292969 23.195312 8.398438 23.425781 7.449219 C 23.644531 6.566406 24.136719 5.875 24.894531 5.375 C 24.964844 5.316406 25.042969 5.265625 25.125 5.226562 C 26.324219 4.464844 27.558594 3.773438 28.839844 3.15625 C 29.941406 2.621094 31.105469 2.351562 32.332031 2.351562 C 33.554688 2.351562 34.71875 2.621094 35.820312 3.15625 C 37.128906 3.785156 38.394531 4.488281 39.617188 5.269531 L 47.671875 10.09375 C 48.363281 10.515625 48.992188 10.875 49.539062 11.214844 C 50.082031 11.574219 50.585938 11.914062 51.070312 12.273438 C 51.207031 12.355469 51.335938 12.453125 51.445312 12.566406 Z M 59.226562 10.917969 L 52.160156 15.675781 C 51.867188 15.871094 51.542969 15.949219 51.191406 15.914062 C 50.84375 15.878906 50.542969 15.738281 50.292969 15.488281 C 50.15625 15.34375 50.007812 15.207031 49.851562 15.085938 C 49.683594 14.9375 49.515625 14.808594 49.328125 14.664062 C 48.949219 14.386719 48.488281 14.089844 47.964844 13.753906 C 47.441406 13.414062 46.832031 13.054688 46.160156 12.652344 L 38.109375 7.832031 C 36.988281 7.105469 35.828125 6.457031 34.625 5.882812 C 33.90625 5.527344 33.144531 5.34375 32.339844 5.335938 C 31.53125 5.34375 30.761719 5.527344 30.035156 5.882812 C 28.84375 6.464844 27.691406 7.105469 26.574219 7.808594 L 26.550781 7.828125 C 26.417969 7.914062 26.332031 8.03125 26.296875 8.183594 C 26.261719 8.335938 26.28125 8.476562 26.363281 8.613281 C 26.4375 8.746094 26.550781 8.832031 26.699219 8.867188 C 26.84375 8.886719 26.984375 8.867188 27.117188 8.804688 L 27.179688 8.761719 C 29.738281 7.238281 31.019531 6.476562 32.339844 6.476562 C 33.179688 6.511719 33.960938 6.738281 34.691406 7.152344 C 35.445312 7.554688 36.347656 8.082031 37.542969 8.804688 L 45.59375 13.625 C 46.183594 13.984375 46.707031 14.28125 47.335938 14.683594 C 47.839844 15 48.257812 15.277344 48.617188 15.53125 L 48.65625 15.570312 C 48.957031 15.789062 49.234375 16.03125 49.496094 16.289062 C 49.757812 16.546875 49.972656 16.835938 50.148438 17.15625 C 50.324219 17.453125 50.449219 17.773438 50.523438 18.109375 C 50.617188 18.421875 50.679688 18.738281 50.710938 19.0625 L 50.710938 19.105469 C 50.753906 19.527344 50.777344 20.011719 50.796875 20.585938 C 50.816406 21.09375 50.816406 21.683594 50.816406 22.359375 C 50.816406 22.519531 50.871094 22.652344 50.984375 22.761719 C 51.09375 22.878906 51.226562 22.933594 51.382812 22.933594 C 51.535156 22.933594 51.660156 22.878906 51.761719 22.761719 C 51.875 22.652344 51.933594 22.519531 51.929688 22.359375 C 51.929688 21.640625 51.929688 21.007812 51.910156 20.414062 C 51.910156 19.90625 51.867188 19.421875 51.824219 18.976562 L 51.78125 18.679688 L 51.742188 18.449219 C 51.675781 18.148438 51.703125 17.855469 51.816406 17.570312 C 51.933594 17.285156 52.117188 17.054688 52.371094 16.882812 L 59.855469 11.871094 C 59.976562 11.777344 60.054688 11.660156 60.085938 11.511719 C 60.125 11.351562 60.097656 11.203125 60.003906 11.066406 C 59.921875 10.933594 59.800781 10.855469 59.648438 10.832031 C 59.496094 10.808594 59.355469 10.835938 59.226562 10.917969 Z M 59.226562 10.917969 " fill-opacity="1" fill-rule="nonzero"/></g><g clip-path="url(#2b3cc79080)"><g clip-path="url(#77fc3ea884)"><path fill="#2072bd" d="M 21.769531 15.234375 L 21.769531 33.050781 L 39.609375 33.050781 L 39.609375 15.234375 Z M 21.769531 15.234375 " fill-opacity="1" fill-rule="nonzero"/></g></g><g fill="#000000" fill-opacity="1"><g transform="translate(69.972847, 20.194346)"><g><path d="M 3.921875 -1.28125 C 4.109375 -1.28125 4.316406 -1.3125 4.546875 -1.375 C 4.773438 -1.4375 4.96875 -1.535156 5.125 -1.671875 C 5.289062 -1.816406 5.375 -2.007812 5.375 -2.25 C 5.375 -2.476562 5.285156 -2.660156 5.109375 -2.796875 C 4.941406 -2.929688 4.71875 -3.039062 4.4375 -3.125 C 4.15625 -3.21875 3.847656 -3.300781 3.515625 -3.375 C 3.179688 -3.457031 2.84375 -3.550781 2.5 -3.65625 C 2.164062 -3.769531 1.859375 -3.914062 1.578125 -4.09375 C 1.296875 -4.269531 1.066406 -4.5 0.890625 -4.78125 C 0.710938 -5.0625 0.625 -5.421875 0.625 -5.859375 C 0.625 -6.285156 0.710938 -6.648438 0.890625 -6.953125 C 1.066406 -7.265625 1.300781 -7.523438 1.59375 -7.734375 C 1.894531 -7.941406 2.226562 -8.09375 2.59375 -8.1875 C 2.957031 -8.289062 3.328125 -8.34375 3.703125 -8.34375 C 4.265625 -8.34375 4.789062 -8.253906 5.28125 -8.078125 C 5.769531 -7.898438 6.171875 -7.617188 6.484375 -7.234375 C 6.796875 -6.847656 6.960938 -6.34375 6.984375 -5.71875 L 5.21875 -5.71875 C 5.175781 -6.144531 5.03125 -6.441406 4.78125 -6.609375 C 4.53125 -6.773438 4.175781 -6.859375 3.71875 -6.859375 C 3.550781 -6.859375 3.375 -6.828125 3.1875 -6.765625 C 3 -6.710938 2.835938 -6.625 2.703125 -6.5 C 2.566406 -6.375 2.5 -6.207031 2.5 -6 C 2.5 -5.789062 2.585938 -5.625 2.765625 -5.5 C 2.941406 -5.382812 3.171875 -5.285156 3.453125 -5.203125 C 3.734375 -5.117188 4.039062 -5.039062 4.375 -4.96875 C 4.71875 -4.894531 5.054688 -4.804688 5.390625 -4.703125 C 5.722656 -4.597656 6.03125 -4.453125 6.3125 -4.265625 C 6.59375 -4.085938 6.816406 -3.851562 6.984375 -3.5625 C 7.160156 -3.269531 7.25 -2.898438 7.25 -2.453125 C 7.25 -1.972656 7.148438 -1.5625 6.953125 -1.21875 C 6.765625 -0.882812 6.507812 -0.613281 6.1875 -0.40625 C 5.863281 -0.195312 5.492188 -0.046875 5.078125 0.046875 C 4.671875 0.140625 4.257812 0.1875 3.84375 0.1875 C 3.238281 0.1875 2.671875 0.0859375 2.140625 -0.109375 C 1.617188 -0.316406 1.191406 -0.632812 0.859375 -1.0625 C 0.535156 -1.488281 0.367188 -2.035156 0.359375 -2.703125 L 2.203125 -2.703125 C 2.222656 -2.210938 2.398438 -1.851562 2.734375 -1.625 C 3.078125 -1.394531 3.472656 -1.28125 3.921875 -1.28125 Z M 3.921875 -1.28125 "/></g></g></g><g fill="#000000" fill-opacity="1"><g transform="translate(77.594652, 20.194346)"><g><path d="M 3.015625 -3.9375 L 3.015625 0 L 1.203125 0 L 1.203125 -3.9375 L 0.234375 -3.9375 L 0.234375 -5.328125 L 1.203125 -5.328125 L 1.203125 -7.359375 L 3.015625 -7.359375 L 3.015625 -5.328125 L 3.984375 -5.328125 L 3.984375 -3.9375 Z M 3.015625 -3.9375 "/></g></g></g><g fill="#000000" fill-opacity="1"><g transform="translate(81.816891, 20.194346)"><g><path d="M 3.734375 -3.984375 C 3.503906 -3.984375 3.300781 -3.914062 3.125 -3.78125 C 2.945312 -3.65625 2.804688 -3.488281 2.703125 -3.28125 C 2.597656 -3.082031 2.546875 -2.875 2.546875 -2.65625 L 2.546875 0 L 0.71875 0 L 0.71875 -5.328125 L 2.546875 -5.328125 L 2.546875 -4.6875 C 2.679688 -4.882812 2.863281 -5.0625 3.09375 -5.21875 C 3.332031 -5.375 3.613281 -5.453125 3.9375 -5.453125 C 4.019531 -5.453125 4.113281 -5.441406 4.21875 -5.421875 C 4.320312 -5.398438 4.410156 -5.367188 4.484375 -5.328125 L 4.484375 -3.6875 L 4.46875 -3.6875 C 4.375 -3.800781 4.257812 -3.878906 4.125 -3.921875 C 4 -3.960938 3.867188 -3.984375 3.734375 -3.984375 Z M 3.734375 -3.984375 "/></g></g></g><g fill="#000000" fill-opacity="1"><g transform="translate(86.426269, 20.194346)"><g><path d="M 0.609375 -2.296875 L 0.609375 -5.328125 L 2.421875 -5.328125 L 2.421875 -2.296875 C 2.421875 -1.992188 2.484375 -1.753906 2.609375 -1.578125 C 2.742188 -1.410156 2.953125 -1.328125 3.234375 -1.328125 C 3.515625 -1.328125 3.753906 -1.457031 3.953125 -1.71875 C 4.148438 -1.988281 4.25 -2.300781 4.25 -2.65625 L 4.25 -5.328125 L 6.0625 -5.328125 L 6.0625 0 L 4.25 0 L 4.25 -0.65625 C 4.070312 -0.425781 3.84375 -0.238281 3.5625 -0.09375 C 3.28125 0.0507812 2.960938 0.125 2.609375 0.125 C 1.898438 0.125 1.390625 -0.0976562 1.078125 -0.546875 C 0.765625 -0.992188 0.609375 -1.578125 0.609375 -2.296875 Z M 0.609375 -2.296875 "/></g></g></g><g fill="#000000" fill-opacity="1"><g transform="translate(93.213304, 20.194346)"><g><path d="M 3.453125 -4.046875 C 3.171875 -4.046875 2.953125 -3.96875 2.796875 -3.8125 C 2.640625 -3.664062 2.523438 -3.484375 2.453125 -3.265625 C 2.390625 -3.054688 2.359375 -2.851562 2.359375 -2.65625 C 2.359375 -2.445312 2.390625 -2.234375 2.453125 -2.015625 C 2.515625 -1.796875 2.625 -1.613281 2.78125 -1.46875 C 2.945312 -1.320312 3.171875 -1.25 3.453125 -1.25 C 3.734375 -1.25 3.96875 -1.3125 4.15625 -1.4375 C 4.351562 -1.5625 4.46875 -1.742188 4.5 -1.984375 L 6.265625 -1.984375 C 6.210938 -1.585938 6.0625 -1.226562 5.8125 -0.90625 C 5.5625 -0.59375 5.226562 -0.34375 4.8125 -0.15625 C 4.40625 0.03125 3.929688 0.125 3.390625 0.125 C 2.773438 0.125 2.242188 0 1.796875 -0.25 C 1.359375 -0.507812 1.019531 -0.847656 0.78125 -1.265625 C 0.539062 -1.691406 0.421875 -2.15625 0.421875 -2.65625 C 0.421875 -3.164062 0.539062 -3.628906 0.78125 -4.046875 C 1.03125 -4.472656 1.378906 -4.8125 1.828125 -5.0625 C 2.273438 -5.320312 2.796875 -5.453125 3.390625 -5.453125 C 3.960938 -5.453125 4.460938 -5.347656 4.890625 -5.140625 C 5.316406 -4.941406 5.648438 -4.671875 5.890625 -4.328125 C 6.140625 -3.984375 6.273438 -3.601562 6.296875 -3.1875 L 4.5 -3.1875 C 4.488281 -3.445312 4.390625 -3.65625 4.203125 -3.8125 C 4.015625 -3.96875 3.765625 -4.046875 3.453125 -4.046875 Z M 3.453125 -4.046875 "/></g></g></g><g fill="#000000" fill-opacity="1"><g transform="translate(99.891456, 20.194346)"><g><path d="M 3.015625 -3.9375 L 3.015625 0 L 1.203125 0 L 1.203125 -3.9375 L 0.234375 -3.9375 L 0.234375 -5.328125 L 1.203125 -5.328125 L 1.203125 -7.359375 L 3.015625 -7.359375 L 3.015625 -5.328125 L 3.984375 -5.328125 L 3.984375 -3.9375 Z M 3.015625 -3.9375 "/></g></g></g><g fill="#000000" fill-opacity="1"><g transform="translate(104.113695, 20.194346)"><g><path d="M 0.609375 -2.296875 L 0.609375 -5.328125 L 2.421875 -5.328125 L 2.421875 -2.296875 C 2.421875 -1.992188 2.484375 -1.753906 2.609375 -1.578125 C 2.742188 -1.410156 2.953125 -1.328125 3.234375 -1.328125 C 3.515625 -1.328125 3.753906 -1.457031 3.953125 -1.71875 C 4.148438 -1.988281 4.25 -2.300781 4.25 -2.65625 L 4.25 -5.328125 L 6.0625 -5.328125 L 6.0625 0 L 4.25 0 L 4.25 -0.65625 C 4.070312 -0.425781 3.84375 -0.238281 3.5625 -0.09375 C 3.28125 0.0507812 2.960938 0.125 2.609375 0.125 C 1.898438 0.125 1.390625 -0.0976562 1.078125 -0.546875 C 0.765625 -0.992188 0.609375 -1.578125 0.609375 -2.296875 Z M 0.609375 -2.296875 "/></g></g></g><g fill="#000000" fill-opacity="1"><g transform="translate(110.90073, 20.194346)"><g><path d="M 3.734375 -3.984375 C 3.503906 -3.984375 3.300781 -3.914062 3.125 -3.78125 C 2.945312 -3.65625 2.804688 -3.488281 2.703125 -3.28125 C 2.597656 -3.082031 2.546875 -2.875 2.546875 -2.65625 L 2.546875 0 L 0.71875 0 L 0.71875 -5.328125 L 2.546875 -5.328125 L 2.546875 -4.6875 C 2.679688 -4.882812 2.863281 -5.0625 3.09375 -5.21875 C 3.332031 -5.375 3.613281 -5.453125 3.9375 -5.453125 C 4.019531 -5.453125 4.113281 -5.441406 4.21875 -5.421875 C 4.320312 -5.398438 4.410156 -5.367188 4.484375 -5.328125 L 4.484375 -3.6875 L 4.46875 -3.6875 C 4.375 -3.800781 4.257812 -3.878906 4.125 -3.921875 C 4 -3.960938 3.867188 -3.984375 3.734375 -3.984375 Z M 3.734375 -3.984375 "/></g></g></g><g fill="#000000" fill-opacity="1"><g transform="translate(115.510108, 20.194346)"><g><path d="M 4.890625 -2.65625 C 4.890625 -2.894531 4.832031 -3.113281 4.71875 -3.3125 C 4.613281 -3.507812 4.460938 -3.671875 4.265625 -3.796875 C 4.078125 -3.921875 3.863281 -3.984375 3.625 -3.984375 C 3.382812 -3.984375 3.171875 -3.921875 2.984375 -3.796875 C 2.796875 -3.671875 2.644531 -3.507812 2.53125 -3.3125 C 2.414062 -3.113281 2.359375 -2.894531 2.359375 -2.65625 C 2.359375 -2.425781 2.414062 -2.207031 2.53125 -2 C 2.644531 -1.800781 2.796875 -1.640625 2.984375 -1.515625 C 3.171875 -1.390625 3.382812 -1.328125 3.625 -1.328125 C 3.863281 -1.328125 4.078125 -1.390625 4.265625 -1.515625 C 4.460938 -1.640625 4.613281 -1.800781 4.71875 -2 C 4.832031 -2.207031 4.890625 -2.425781 4.890625 -2.65625 Z M 6.71875 -5.328125 L 6.71875 0 L 4.890625 0 L 4.890625 -0.640625 C 4.710938 -0.367188 4.445312 -0.171875 4.09375 -0.046875 C 3.75 0.0664062 3.410156 0.125 3.078125 0.125 C 2.578125 0.125 2.125 -0.00390625 1.71875 -0.265625 C 1.3125 -0.523438 0.992188 -0.863281 0.765625 -1.28125 C 0.535156 -1.707031 0.421875 -2.164062 0.421875 -2.65625 C 0.421875 -3.144531 0.535156 -3.601562 0.765625 -4.03125 C 0.992188 -4.457031 1.3125 -4.800781 1.71875 -5.0625 C 2.125 -5.320312 2.578125 -5.453125 3.078125 -5.453125 C 3.410156 -5.453125 3.738281 -5.394531 4.0625 -5.28125 C 4.382812 -5.164062 4.660156 -4.96875 4.890625 -4.6875 L 4.890625 -5.328125 Z M 6.71875 -5.328125 "/></g></g></g><g fill="#000000" fill-opacity="1"><g transform="translate(122.950442, 20.194346)"><g><path d="M 2.546875 0 L 0.71875 0 L 0.71875 -9.078125 L 2.546875 -9.078125 Z M 2.546875 0 "/></g></g></g><g fill="#000000" fill-opacity="1"><g transform="translate(126.21693, 20.194346)"><g/></g></g><g fill="#000000" fill-opacity="1"><g transform="translate(129.241455, 20.194346)"><g><path d="M 4.6875 -2.40625 C 4.6875 -2.675781 4.585938 -2.90625 4.390625 -3.09375 C 4.191406 -3.289062 3.957031 -3.390625 3.6875 -3.390625 L 2.546875 -3.390625 L 2.546875 -1.421875 L 3.6875 -1.421875 C 3.957031 -1.421875 4.191406 -1.515625 4.390625 -1.703125 C 4.585938 -1.898438 4.6875 -2.132812 4.6875 -2.40625 Z M 4.125 -5.84375 C 4.125 -6.101562 4.03125 -6.328125 3.84375 -6.515625 C 3.65625 -6.703125 3.429688 -6.796875 3.171875 -6.796875 L 2.546875 -6.796875 L 2.546875 -4.890625 L 3.171875 -4.890625 C 3.429688 -4.890625 3.65625 -4.984375 3.84375 -5.171875 C 4.03125 -5.359375 4.125 -5.582031 4.125 -5.84375 Z M 6.546875 -2.359375 C 6.546875 -1.648438 6.328125 -1.078125 5.890625 -0.640625 C 5.453125 -0.210938 4.835938 0 4.046875 0 L 0.71875 0 L 0.71875 -8.21875 L 3.5625 -8.21875 C 4.019531 -8.21875 4.421875 -8.125 4.765625 -7.9375 C 5.109375 -7.757812 5.375 -7.515625 5.5625 -7.203125 C 5.757812 -6.890625 5.859375 -6.546875 5.859375 -6.171875 C 5.859375 -5.742188 5.769531 -5.378906 5.59375 -5.078125 C 5.414062 -4.773438 5.175781 -4.554688 4.875 -4.421875 C 5.332031 -4.316406 5.722656 -4.082031 6.046875 -3.71875 C 6.378906 -3.363281 6.546875 -2.910156 6.546875 -2.359375 Z M 6.546875 -2.359375 "/></g></g></g><g fill="#000000" fill-opacity="1"><g transform="translate(135.907506, 20.194346)"><g><path d="M 0.625 -7.15625 C 0.625 -7.457031 0.726562 -7.707031 0.9375 -7.90625 C 1.144531 -8.113281 1.394531 -8.21875 1.6875 -8.21875 C 1.976562 -8.21875 2.226562 -8.113281 2.4375 -7.90625 C 2.644531 -7.707031 2.75 -7.457031 2.75 -7.15625 C 2.75 -6.863281 2.644531 -6.613281 2.4375 -6.40625 C 2.226562 -6.195312 1.976562 -6.09375 1.6875 -6.09375 C 1.394531 -6.09375 1.144531 -6.195312 0.9375 -6.40625 C 0.726562 -6.613281 0.625 -6.863281 0.625 -7.15625 Z M 2.59375 0 L 0.78125 0 L 0.78125 -5.328125 L 2.59375 -5.328125 Z M 2.59375 0 "/></g></g></g><g fill="#000000" fill-opacity="1"><g transform="translate(139.294978, 20.194346)"><g><path d="M 3.46875 -1.25 C 3.789062 -1.25 4.039062 -1.316406 4.21875 -1.453125 C 4.394531 -1.597656 4.519531 -1.773438 4.59375 -1.984375 C 4.664062 -2.203125 4.703125 -2.425781 4.703125 -2.65625 C 4.703125 -2.875 4.660156 -3.085938 4.578125 -3.296875 C 4.503906 -3.503906 4.378906 -3.675781 4.203125 -3.8125 C 4.023438 -3.957031 3.78125 -4.03125 3.46875 -4.03125 C 3.15625 -4.03125 2.90625 -3.957031 2.71875 -3.8125 C 2.539062 -3.675781 2.410156 -3.503906 2.328125 -3.296875 C 2.253906 -3.085938 2.21875 -2.875 2.21875 -2.65625 C 2.21875 -2.425781 2.253906 -2.203125 2.328125 -1.984375 C 2.398438 -1.773438 2.523438 -1.597656 2.703125 -1.453125 C 2.890625 -1.316406 3.144531 -1.25 3.46875 -1.25 Z M 3.46875 -5.4375 C 4.03125 -5.4375 4.539062 -5.316406 5 -5.078125 C 5.457031 -4.847656 5.820312 -4.523438 6.09375 -4.109375 C 6.363281 -3.703125 6.5 -3.21875 6.5 -2.65625 C 6.5 -2.09375 6.363281 -1.601562 6.09375 -1.1875 C 5.832031 -0.769531 5.46875 -0.445312 5 -0.21875 C 4.539062 0 4.03125 0.109375 3.46875 0.109375 C 2.90625 0.109375 2.390625 0 1.921875 -0.21875 C 1.460938 -0.445312 1.097656 -0.769531 0.828125 -1.1875 C 0.554688 -1.601562 0.421875 -2.09375 0.421875 -2.65625 C 0.421875 -3.21875 0.554688 -3.703125 0.828125 -4.109375 C 1.109375 -4.523438 1.476562 -4.847656 1.9375 -5.078125 C 2.40625 -5.316406 2.914062 -5.4375 3.46875 -5.4375 Z M 3.46875 -5.4375 "/></g></g></g><g fill="#000000" fill-opacity="1"><g transform="translate(146.227188, 20.194346)"><g><path d="M 2.546875 0 L 0.71875 0 L 0.71875 -9.078125 L 2.546875 -9.078125 Z M 2.546875 0 "/></g></g></g><g fill="#000000" fill-opacity="1"><g transform="translate(149.493677, 20.194346)"><g><path d="M 3.46875 -1.25 C 3.789062 -1.25 4.039062 -1.316406 4.21875 -1.453125 C 4.394531 -1.597656 4.519531 -1.773438 4.59375 -1.984375 C 4.664062 -2.203125 4.703125 -2.425781 4.703125 -2.65625 C 4.703125 -2.875 4.660156 -3.085938 4.578125 -3.296875 C 4.503906 -3.503906 4.378906 -3.675781 4.203125 -3.8125 C 4.023438 -3.957031 3.78125 -4.03125 3.46875 -4.03125 C 3.15625 -4.03125 2.90625 -3.957031 2.71875 -3.8125 C 2.539062 -3.675781 2.410156 -3.503906 2.328125 -3.296875 C 2.253906 -3.085938 2.21875 -2.875 2.21875 -2.65625 C 2.21875 -2.425781 2.253906 -2.203125 2.328125 -1.984375 C 2.398438 -1.773438 2.523438 -1.597656 2.703125 -1.453125 C 2.890625 -1.316406 3.144531 -1.25 3.46875 -1.25 Z M 3.46875 -5.4375 C 4.03125 -5.4375 4.539062 -5.316406 5 -5.078125 C 5.457031 -4.847656 5.820312 -4.523438 6.09375 -4.109375 C 6.363281 -3.703125 6.5 -3.21875 6.5 -2.65625 C 6.5 -2.09375 6.363281 -1.601562 6.09375 -1.1875 C 5.832031 -0.769531 5.46875 -0.445312 5 -0.21875 C 4.539062 0 4.03125 0.109375 3.46875 0.109375 C 2.90625 0.109375 2.390625 0 1.921875 -0.21875 C 1.460938 -0.445312 1.097656 -0.769531 0.828125 -1.1875 C 0.554688 -1.601562 0.421875 -2.09375 0.421875 -2.65625 C 0.421875 -3.21875 0.554688 -3.703125 0.828125 -4.109375 C 1.109375 -4.523438 1.476562 -4.847656 1.9375 -5.078125 C 2.40625 -5.316406 2.914062 -5.4375 3.46875 -5.4375 Z M 3.46875 -5.4375 "/></g></g></g><g fill="#000000" fill-opacity="1"><g transform="translate(156.425887, 20.194346)"><g><path d="M 3.625 -1.328125 C 3.863281 -1.328125 4.078125 -1.390625 4.265625 -1.515625 C 4.460938 -1.640625 4.613281 -1.804688 4.71875 -2.015625 C 4.832031 -2.222656 4.890625 -2.441406 4.890625 -2.671875 C 4.890625 -2.910156 4.832031 -3.128906 4.71875 -3.328125 C 4.613281 -3.523438 4.460938 -3.6875 4.265625 -3.8125 C 4.078125 -3.9375 3.863281 -4 3.625 -4 C 3.382812 -4 3.171875 -3.9375 2.984375 -3.8125 C 2.796875 -3.6875 2.644531 -3.523438 2.53125 -3.328125 C 2.414062 -3.128906 2.359375 -2.910156 2.359375 -2.671875 C 2.359375 -2.441406 2.414062 -2.222656 2.53125 -2.015625 C 2.644531 -1.804688 2.796875 -1.640625 2.984375 -1.515625 C 3.171875 -1.390625 3.382812 -1.328125 3.625 -1.328125 Z M 4.890625 -4.6875 L 4.890625 -5.328125 L 6.71875 -5.328125 L 6.71875 -0.015625 C 6.71875 0.566406 6.578125 1.085938 6.296875 1.546875 C 6.015625 2.003906 5.640625 2.363281 5.171875 2.625 C 4.703125 2.894531 4.1875 3.03125 3.625 3.03125 C 3.257812 3.03125 2.894531 2.984375 2.53125 2.890625 C 2.175781 2.796875 1.847656 2.648438 1.546875 2.453125 C 1.242188 2.265625 1 2.019531 0.8125 1.71875 C 0.632812 1.425781 0.535156 1.078125 0.515625 0.671875 L 2.328125 0.671875 C 2.390625 0.992188 2.53125 1.242188 2.75 1.421875 C 2.976562 1.597656 3.238281 1.6875 3.53125 1.6875 C 3.800781 1.6875 4.035156 1.613281 4.234375 1.46875 C 4.441406 1.320312 4.601562 1.132812 4.71875 0.90625 C 4.832031 0.675781 4.890625 0.4375 4.890625 0.1875 L 4.890625 -0.65625 C 4.710938 -0.375 4.445312 -0.171875 4.09375 -0.046875 C 3.75 0.0664062 3.410156 0.125 3.078125 0.125 C 2.578125 0.125 2.125 -0.00390625 1.71875 -0.265625 C 1.3125 -0.535156 0.992188 -0.878906 0.765625 -1.296875 C 0.535156 -1.722656 0.421875 -2.179688 0.421875 -2.671875 C 0.421875 -3.160156 0.535156 -3.617188 0.765625 -4.046875 C 0.992188 -4.472656 1.3125 -4.8125 1.71875 -5.0625 C 2.125 -5.320312 2.578125 -5.453125 3.078125 -5.453125 C 3.410156 -5.453125 3.734375 -5.398438 4.046875 -5.296875 C 4.359375 -5.191406 4.640625 -4.988281 4.890625 -4.6875 Z M 4.890625 -4.6875 "/></g></g></g><g fill="#000000" fill-opacity="1"><g transform="translate(163.86622, 20.194346)"><g><path d="M 2.890625 3.03125 L 1 3.03125 L 2.21875 0 L 1.90625 0 L -0.125 -5.328125 L 1.703125 -5.328125 L 2.96875 -1.53125 L 4.25 -5.328125 L 6.078125 -5.328125 L 4.046875 0 Z M 2.890625 3.03125 "/></g></g></g><g fill="#000000" fill-opacity="1"><g transform="translate(169.830589, 20.194346)"><g/></g></g><g fill="#000000" fill-opacity="1"><g transform="translate(172.85511, 20.194346)"><g><path d="M 0.71875 0 L 0.71875 -8.21875 L 2.546875 -8.21875 L 2.546875 -1.640625 L 5.484375 -1.640625 L 5.484375 0 Z M 0.71875 0 "/></g></g></g><g fill="#000000" fill-opacity="1"><g transform="translate(178.771082, 20.194346)"><g><path d="M 4.890625 -2.65625 C 4.890625 -2.894531 4.832031 -3.113281 4.71875 -3.3125 C 4.613281 -3.507812 4.460938 -3.671875 4.265625 -3.796875 C 4.078125 -3.921875 3.863281 -3.984375 3.625 -3.984375 C 3.382812 -3.984375 3.171875 -3.921875 2.984375 -3.796875 C 2.796875 -3.671875 2.644531 -3.507812 2.53125 -3.3125 C 2.414062 -3.113281 2.359375 -2.894531 2.359375 -2.65625 C 2.359375 -2.425781 2.414062 -2.207031 2.53125 -2 C 2.644531 -1.800781 2.796875 -1.640625 2.984375 -1.515625 C 3.171875 -1.390625 3.382812 -1.328125 3.625 -1.328125 C 3.863281 -1.328125 4.078125 -1.390625 4.265625 -1.515625 C 4.460938 -1.640625 4.613281 -1.800781 4.71875 -2 C 4.832031 -2.207031 4.890625 -2.425781 4.890625 -2.65625 Z M 6.71875 -5.328125 L 6.71875 0 L 4.890625 0 L 4.890625 -0.640625 C 4.710938 -0.367188 4.445312 -0.171875 4.09375 -0.046875 C 3.75 0.0664062 3.410156 0.125 3.078125 0.125 C 2.578125 0.125 2.125 -0.00390625 1.71875 -0.265625 C 1.3125 -0.523438 0.992188 -0.863281 0.765625 -1.28125 C 0.535156 -1.707031 0.421875 -2.164062 0.421875 -2.65625 C 0.421875 -3.144531 0.535156 -3.601562 0.765625 -4.03125 C 0.992188 -4.457031 1.3125 -4.800781 1.71875 -5.0625 C 2.125 -5.320312 2.578125 -5.453125 3.078125 -5.453125 C 3.410156 -5.453125 3.738281 -5.394531 4.0625 -5.28125 C 4.382812 -5.164062 4.660156 -4.96875 4.890625 -4.6875 L 4.890625 -5.328125 Z M 6.71875 -5.328125 "/></g></g></g><g fill="#000000" fill-opacity="1"><g transform="translate(186.211415, 20.194346)"><g><path d="M 2.546875 -2.65625 C 2.546875 -2.425781 2.597656 -2.207031 2.703125 -2 C 2.816406 -1.800781 2.96875 -1.640625 3.15625 -1.515625 C 3.351562 -1.390625 3.570312 -1.328125 3.8125 -1.328125 C 4.050781 -1.328125 4.265625 -1.390625 4.453125 -1.515625 C 4.640625 -1.640625 4.789062 -1.800781 4.90625 -2 C 5.019531 -2.207031 5.078125 -2.425781 5.078125 -2.65625 C 5.078125 -2.894531 5.019531 -3.113281 4.90625 -3.3125 C 4.789062 -3.507812 4.640625 -3.671875 4.453125 -3.796875 C 4.265625 -3.921875 4.050781 -3.984375 3.8125 -3.984375 C 3.570312 -3.984375 3.351562 -3.921875 3.15625 -3.796875 C 2.96875 -3.671875 2.816406 -3.507812 2.703125 -3.3125 C 2.597656 -3.113281 2.546875 -2.894531 2.546875 -2.65625 Z M 2.546875 0 L 0.71875 0 L 0.71875 -9.078125 L 2.546875 -9.078125 L 2.546875 -4.6875 C 2.773438 -4.96875 3.046875 -5.164062 3.359375 -5.28125 C 3.679688 -5.394531 4.015625 -5.453125 4.359375 -5.453125 C 4.867188 -5.453125 5.320312 -5.320312 5.71875 -5.0625 C 6.125 -4.800781 6.441406 -4.457031 6.671875 -4.03125 C 6.898438 -3.601562 7.015625 -3.144531 7.015625 -2.65625 C 7.015625 -2.164062 6.898438 -1.707031 6.671875 -1.28125 C 6.441406 -0.863281 6.125 -0.523438 5.71875 -0.265625 C 5.320312 -0.00390625 4.867188 0.125 4.359375 0.125 C 4.015625 0.125 3.671875 0.0664062 3.328125 -0.046875 C 2.984375 -0.171875 2.722656 -0.367188 2.546875 -0.640625 Z M 2.546875 0 "/></g></g></g><g fill="#000000" fill-opacity="1"><g transform="translate(193.652061, 20.194346)"><g/></g></g><g fill="#000000" fill-opacity="1"><g transform="translate(70.075681, 33.87397)"><g><path d="M 5.953125 -5.59375 L 5.953125 0 L 5.125 0 L 5.125 -2.703125 C 4.9375 -2.640625 4.742188 -2.597656 4.546875 -2.578125 C 4.347656 -2.554688 4.117188 -2.546875 3.859375 -2.546875 C 3.566406 -2.546875 3.265625 -2.570312 2.953125 -2.625 C 2.640625 -2.675781 2.375 -2.738281 2.15625 -2.8125 C 2.019531 -2.71875 1.863281 -2.632812 1.6875 -2.5625 C 1.96875 -2.207031 2.296875 -1.84375 2.671875 -1.46875 C 3.046875 -1.101562 3.441406 -0.753906 3.859375 -0.421875 L 3.3125 0.125 C 2.925781 -0.207031 2.566406 -0.539062 2.234375 -0.875 C 1.898438 -1.21875 1.601562 -1.535156 1.34375 -1.828125 C 1.09375 -2.117188 0.890625 -2.375 0.734375 -2.59375 C 0.585938 -2.800781 0.492188 -2.96875 0.453125 -3.09375 C 0.421875 -3.21875 0.40625 -3.335938 0.40625 -3.453125 C 0.40625 -3.578125 0.453125 -3.695312 0.546875 -3.8125 C 0.648438 -3.925781 0.816406 -3.984375 1.046875 -3.984375 C 1.222656 -3.984375 1.375 -3.941406 1.5 -3.859375 C 1.625 -3.785156 1.734375 -3.679688 1.828125 -3.546875 C 1.972656 -3.671875 2.070312 -3.832031 2.125 -4.03125 C 2.175781 -4.238281 2.203125 -4.441406 2.203125 -4.640625 C 2.203125 -4.847656 2.1875 -5.03125 2.15625 -5.1875 C 2.125 -5.351562 2.082031 -5.488281 2.03125 -5.59375 L 0 -5.59375 L 0 -6.3125 L 7 -6.3125 L 7 -5.59375 Z M 3.734375 -3.265625 C 4.003906 -3.265625 4.242188 -3.273438 4.453125 -3.296875 C 4.671875 -3.328125 4.894531 -3.375 5.125 -3.4375 L 5.125 -5.59375 L 2.84375 -5.59375 C 2.894531 -5.476562 2.9375 -5.34375 2.96875 -5.1875 C 3 -5.03125 3.015625 -4.847656 3.015625 -4.640625 C 3.015625 -4.359375 2.984375 -4.113281 2.921875 -3.90625 C 2.859375 -3.695312 2.769531 -3.519531 2.65625 -3.375 C 3.007812 -3.300781 3.367188 -3.265625 3.734375 -3.265625 Z M 3.734375 -3.265625 "/></g></g></g><g fill="#000000" fill-opacity="1"><g transform="translate(76.934896, 33.87397)"><g><path d="M -1.875 -7.828125 C -1.875 -7.992188 -1.816406 -8.132812 -1.703125 -8.25 C -1.597656 -8.363281 -1.46875 -8.421875 -1.3125 -8.421875 C -1.164062 -8.421875 -1.035156 -8.363281 -0.921875 -8.25 C -0.816406 -8.132812 -0.765625 -7.992188 -0.765625 -7.828125 C -0.765625 -7.660156 -0.816406 -7.519531 -0.921875 -7.40625 C -1.035156 -7.289062 -1.164062 -7.234375 -1.3125 -7.234375 C -1.46875 -7.234375 -1.597656 -7.289062 -1.703125 -7.40625 C -1.816406 -7.519531 -1.875 -7.660156 -1.875 -7.828125 Z M -1.875 -7.828125 "/></g></g></g><g fill="#000000" fill-opacity="1"><g transform="translate(76.934896, 33.87397)"><g><path d="M 4 -0.421875 L 3.453125 0.125 C 3.054688 -0.207031 2.679688 -0.539062 2.328125 -0.875 C 1.984375 -1.21875 1.675781 -1.535156 1.40625 -1.828125 C 1.132812 -2.117188 0.921875 -2.375 0.765625 -2.59375 C 0.609375 -2.800781 0.507812 -2.96875 0.46875 -3.09375 C 0.425781 -3.21875 0.40625 -3.335938 0.40625 -3.453125 C 0.40625 -3.578125 0.453125 -3.695312 0.546875 -3.8125 C 0.648438 -3.925781 0.816406 -3.984375 1.046875 -3.984375 C 1.222656 -3.984375 1.375 -3.941406 1.5 -3.859375 C 1.625 -3.785156 1.734375 -3.679688 1.828125 -3.546875 C 2.097656 -3.671875 2.289062 -3.832031 2.40625 -4.03125 C 2.53125 -4.238281 2.59375 -4.476562 2.59375 -4.75 C 2.59375 -4.90625 2.578125 -5.054688 2.546875 -5.203125 C 2.515625 -5.359375 2.472656 -5.488281 2.421875 -5.59375 L 0 -5.59375 L 0 -6.3125 L 4.296875 -6.3125 L 4.296875 -5.59375 L 3.25 -5.59375 C 3.351562 -5.351562 3.40625 -5.035156 3.40625 -4.640625 C 3.40625 -4.273438 3.332031 -3.960938 3.1875 -3.703125 C 3.039062 -3.441406 2.835938 -3.222656 2.578125 -3.046875 C 2.316406 -2.867188 2.019531 -2.710938 1.6875 -2.578125 C 2 -2.222656 2.351562 -1.859375 2.75 -1.484375 C 3.15625 -1.109375 3.570312 -0.753906 4 -0.421875 Z M 4 -0.421875 "/></g></g></g><g fill="#000000" fill-opacity="1"><g transform="translate(81.084923, 33.87397)"><g><path d="M 6.578125 -5.59375 L 5.53125 -5.59375 L 5.53125 0 L 4.71875 0 L 4.71875 -1.671875 C 4.539062 -1.554688 4.328125 -1.445312 4.078125 -1.34375 C 3.835938 -1.25 3.550781 -1.203125 3.21875 -1.203125 C 2.695312 -1.203125 2.269531 -1.34375 1.9375 -1.625 C 1.601562 -1.914062 1.4375 -2.300781 1.4375 -2.78125 C 1.4375 -2.976562 1.476562 -3.160156 1.5625 -3.328125 C 1.644531 -3.503906 1.75 -3.648438 1.875 -3.765625 L 0.390625 -3.734375 L 0.390625 -4.46875 L 3.359375 -4.46875 C 3.484375 -4.46875 3.601562 -4.46875 3.71875 -4.46875 C 3.832031 -4.46875 3.90625 -4.46875 3.9375 -4.46875 L 3.875 -3.75 L 3.546875 -3.75 C 3.160156 -3.75 2.84375 -3.664062 2.59375 -3.5 C 2.351562 -3.332031 2.234375 -3.09375 2.234375 -2.78125 C 2.234375 -2.488281 2.332031 -2.269531 2.53125 -2.125 C 2.726562 -1.976562 2.957031 -1.90625 3.21875 -1.90625 C 3.550781 -1.90625 3.835938 -1.976562 4.078125 -2.125 C 4.316406 -2.269531 4.53125 -2.441406 4.71875 -2.640625 L 4.71875 -5.59375 L 0 -5.59375 L 0 -6.3125 L 6.578125 -6.3125 Z M 6.578125 -5.59375 "/></g></g></g><g fill="#000000" fill-opacity="1"><g transform="translate(87.517972, 33.87397)"><g><path d="M 0 -6.3125 L 5.765625 -6.3125 L 5.765625 -5.59375 L 4.71875 -5.59375 L 4.71875 0 L 3.90625 0 L 3.90625 -3.015625 L 2.0625 -3.015625 L 2.0625 -2.46875 C 2.0625 -2.28125 2.015625 -2.140625 1.921875 -2.046875 C 1.828125 -1.953125 1.703125 -1.90625 1.546875 -1.90625 C 1.378906 -1.90625 1.207031 -1.972656 1.03125 -2.109375 C 0.851562 -2.253906 0.695312 -2.425781 0.5625 -2.625 C 0.4375 -2.832031 0.375 -3.03125 0.375 -3.21875 C 0.375 -3.375 0.421875 -3.5 0.515625 -3.59375 C 0.609375 -3.6875 0.769531 -3.734375 1 -3.734375 L 3.90625 -3.734375 L 3.90625 -5.59375 L 0 -5.59375 Z M 0 -6.3125 "/></g></g></g><g fill="#000000" fill-opacity="1"><g transform="translate(93.149425, 33.87397)"><g><path d="M 1.71875 -5.59375 L 1.71875 0 L 0.90625 0 L 0.90625 -5.59375 L 0 -5.59375 L 0 -6.3125 L 2.765625 -6.3125 L 2.765625 -5.59375 Z M 1.71875 -5.59375 "/></g></g></g><g fill="#000000" fill-opacity="1"><g transform="translate(95.777439, 33.87397)"><g><path d="M 0 -6.3125 L 3.6875 -6.3125 L 3.6875 -5.59375 L 0 -5.59375 Z M 0.453125 -2.453125 C 0.453125 -2.679688 0.5 -2.890625 0.59375 -3.078125 C 0.6875 -3.273438 0.800781 -3.4375 0.9375 -3.5625 C 1.132812 -3.726562 1.367188 -3.847656 1.640625 -3.921875 C 1.921875 -4.003906 2.296875 -4.046875 2.765625 -4.046875 L 3.859375 -4.046875 L 3.859375 -3.328125 L 2.953125 -3.328125 C 2.535156 -3.328125 2.222656 -3.304688 2.015625 -3.265625 C 1.816406 -3.222656 1.648438 -3.144531 1.515625 -3.03125 C 1.359375 -2.90625 1.28125 -2.695312 1.28125 -2.40625 C 1.28125 -2.070312 1.40625 -1.75 1.65625 -1.4375 C 1.90625 -1.132812 2.269531 -0.789062 2.75 -0.40625 L 2.203125 0.125 C 1.878906 -0.144531 1.585938 -0.414062 1.328125 -0.6875 C 1.066406 -0.957031 0.851562 -1.238281 0.6875 -1.53125 C 0.53125 -1.820312 0.453125 -2.128906 0.453125 -2.453125 Z M 0.453125 -2.453125 "/></g></g></g><g fill="#000000" fill-opacity="1"><g transform="translate(98.831571, 33.87397)"><g><path d="M 5.15625 -5.59375 L 5.15625 0 L 4.34375 0 L 4.34375 -2.53125 L 2.09375 -2.53125 L 2.09375 -2.15625 C 2.09375 -1.9375 2.046875 -1.773438 1.953125 -1.671875 C 1.859375 -1.578125 1.742188 -1.53125 1.609375 -1.53125 C 1.484375 -1.53125 1.347656 -1.570312 1.203125 -1.65625 C 1.066406 -1.738281 0.9375 -1.847656 0.8125 -1.984375 C 0.6875 -2.117188 0.582031 -2.257812 0.5 -2.40625 C 0.425781 -2.550781 0.390625 -2.6875 0.390625 -2.8125 C 0.390625 -2.9375 0.4375 -3.039062 0.53125 -3.125 C 0.625 -3.207031 0.785156 -3.25 1.015625 -3.25 L 1.28125 -3.25 L 1.28125 -5.59375 L 0 -5.59375 L 0 -6.3125 L 6.203125 -6.3125 L 6.203125 -5.59375 Z M 4.34375 -5.59375 L 2.09375 -5.59375 L 2.09375 -3.25 L 4.34375 -3.25 Z M 4.34375 -5.59375 "/></g></g></g><g fill="#000000" fill-opacity="1"><g transform="translate(104.899334, 33.87397)"><g><path d="M 7.875 -5.59375 L 4.578125 -5.59375 L 4.578125 -3.546875 C 4.910156 -3.878906 5.304688 -4.046875 5.765625 -4.046875 C 6.203125 -4.046875 6.5625 -3.90625 6.84375 -3.625 C 7.125 -3.34375 7.265625 -2.941406 7.265625 -2.421875 C 7.265625 -2.109375 7.210938 -1.773438 7.109375 -1.421875 C 7.003906 -1.078125 6.835938 -0.734375 6.609375 -0.390625 L 5.875 -0.8125 C 6.039062 -1.03125 6.175781 -1.28125 6.28125 -1.5625 C 6.394531 -1.84375 6.453125 -2.125 6.453125 -2.40625 C 6.453125 -2.71875 6.382812 -2.953125 6.25 -3.109375 C 6.113281 -3.265625 5.929688 -3.34375 5.703125 -3.34375 C 5.335938 -3.34375 4.960938 -3.097656 4.578125 -2.609375 L 4.578125 0 L 3.765625 0 L 3.765625 -1.765625 C 3.597656 -1.628906 3.394531 -1.5 3.15625 -1.375 C 2.914062 -1.257812 2.628906 -1.203125 2.296875 -1.203125 C 1.972656 -1.203125 1.671875 -1.265625 1.390625 -1.390625 C 1.109375 -1.515625 0.882812 -1.707031 0.71875 -1.96875 C 0.550781 -2.226562 0.46875 -2.550781 0.46875 -2.9375 C 0.46875 -3.476562 0.648438 -3.90625 1.015625 -4.21875 C 1.390625 -4.539062 1.875 -4.703125 2.46875 -4.703125 C 2.625 -4.703125 2.796875 -4.691406 2.984375 -4.671875 C 3.179688 -4.648438 3.332031 -4.628906 3.4375 -4.609375 L 3.375 -3.859375 C 3.269531 -3.890625 3.132812 -3.914062 2.96875 -3.9375 C 2.800781 -3.957031 2.65625 -3.96875 2.53125 -3.96875 C 2.132812 -3.96875 1.828125 -3.875 1.609375 -3.6875 C 1.390625 -3.507812 1.28125 -3.269531 1.28125 -2.96875 C 1.28125 -2.601562 1.382812 -2.332031 1.59375 -2.15625 C 1.800781 -1.988281 2.039062 -1.90625 2.3125 -1.90625 C 2.613281 -1.90625 2.878906 -1.972656 3.109375 -2.109375 C 3.335938 -2.253906 3.554688 -2.429688 3.765625 -2.640625 L 3.765625 -5.59375 L 0 -5.59375 L 0 -6.3125 L 7.875 -6.3125 Z M 7.875 -5.59375 "/></g></g></g><g fill="#000000" fill-opacity="1"><g transform="translate(112.631169, 33.87397)"><g/></g></g><g fill="#000000" fill-opacity="1"><g transform="translate(115.6752, 33.87397)"><g><path d="M 6.625 -5.59375 L 6.625 0 L 5.796875 0 L 5.796875 -3.75 L 4.40625 -3.75 C 4.132812 -3.75 3.941406 -3.757812 3.828125 -3.78125 C 4.078125 -3.582031 4.273438 -3.347656 4.421875 -3.078125 C 4.566406 -2.804688 4.640625 -2.515625 4.640625 -2.203125 C 4.640625 -1.898438 4.570312 -1.640625 4.4375 -1.421875 C 4.300781 -1.210938 4.117188 -1.054688 3.890625 -0.953125 C 3.660156 -0.859375 3.410156 -0.8125 3.140625 -0.8125 C 2.785156 -0.8125 2.441406 -0.914062 2.109375 -1.125 C 1.785156 -1.332031 1.472656 -1.671875 1.171875 -2.140625 C 0.878906 -2.617188 0.59375 -3.257812 0.3125 -4.0625 L 1.03125 -4.3125 C 1.34375 -3.414062 1.664062 -2.726562 2 -2.25 C 2.34375 -1.78125 2.710938 -1.546875 3.109375 -1.546875 C 3.316406 -1.546875 3.488281 -1.601562 3.625 -1.71875 C 3.769531 -1.832031 3.84375 -2.023438 3.84375 -2.296875 C 3.84375 -2.597656 3.738281 -2.878906 3.53125 -3.140625 C 3.320312 -3.398438 3.066406 -3.628906 2.765625 -3.828125 L 3.0625 -4.46875 L 5.796875 -4.46875 L 5.796875 -5.59375 L 0 -5.59375 L 0 -6.3125 L 7.671875 -6.3125 L 7.671875 -5.59375 Z M 6.625 -5.59375 "/></g></g></g><g fill="#000000" fill-opacity="1"><g transform="translate(123.2041, 33.87397)"><g><path d="M -1.875 -6.234375 C -1.988281 -6.472656 -2.078125 -6.695312 -2.140625 -6.90625 C -2.203125 -7.125 -2.234375 -7.347656 -2.234375 -7.578125 C -2.234375 -8.015625 -2.085938 -8.375 -1.796875 -8.65625 C -1.515625 -8.945312 -1.125 -9.09375 -0.625 -9.09375 C -0.21875 -9.09375 0.117188 -8.992188 0.390625 -8.796875 C 0.660156 -8.609375 0.894531 -8.304688 1.09375 -7.890625 C 1.289062 -7.484375 1.476562 -6.957031 1.65625 -6.3125 L 2.765625 -6.3125 L 2.765625 -5.59375 L 1.71875 -5.59375 L 1.71875 0 L 0.90625 0 L 0.90625 -5.59375 L 0 -5.59375 L 0 -6.3125 L 0.875 -6.3125 C 0.6875 -7.007812 0.488281 -7.523438 0.28125 -7.859375 C 0.0820312 -8.191406 -0.203125 -8.359375 -0.578125 -8.359375 C -0.847656 -8.359375 -1.050781 -8.273438 -1.1875 -8.109375 C -1.332031 -7.953125 -1.40625 -7.726562 -1.40625 -7.4375 C -1.40625 -7.207031 -1.367188 -7 -1.296875 -6.8125 C -1.234375 -6.625 -1.15625 -6.429688 -1.0625 -6.234375 Z M -1.875 -6.234375 "/></g></g></g><g fill="#000000" fill-opacity="1"><g transform="translate(125.832114, 33.87397)"><g><path d="M 5.796875 -5.59375 L 4.734375 -5.59375 L 4.734375 0 L 3.921875 0 L 3.921875 -1.671875 C 3.742188 -1.546875 3.53125 -1.4375 3.28125 -1.34375 C 3.03125 -1.25 2.722656 -1.203125 2.359375 -1.203125 C 1.992188 -1.203125 1.664062 -1.269531 1.375 -1.40625 C 1.09375 -1.550781 0.867188 -1.75 0.703125 -2 C 0.546875 -2.257812 0.46875 -2.5625 0.46875 -2.90625 C 0.46875 -3.476562 0.660156 -3.921875 1.046875 -4.234375 C 1.429688 -4.546875 1.941406 -4.703125 2.578125 -4.703125 C 2.671875 -4.703125 2.78125 -4.695312 2.90625 -4.6875 C 3.039062 -4.675781 3.171875 -4.660156 3.296875 -4.640625 C 3.421875 -4.628906 3.519531 -4.617188 3.59375 -4.609375 L 3.546875 -3.859375 C 3.410156 -3.890625 3.257812 -3.914062 3.09375 -3.9375 C 2.9375 -3.957031 2.78125 -3.96875 2.625 -3.96875 C 2.207031 -3.96875 1.878906 -3.875 1.640625 -3.6875 C 1.398438 -3.507812 1.28125 -3.25 1.28125 -2.90625 C 1.28125 -2.5625 1.382812 -2.304688 1.59375 -2.140625 C 1.8125 -1.984375 2.078125 -1.90625 2.390625 -1.90625 C 2.734375 -1.90625 3.03125 -1.976562 3.28125 -2.125 C 3.539062 -2.28125 3.753906 -2.453125 3.921875 -2.640625 L 3.921875 -5.59375 L 0 -5.59375 L 0 -6.3125 L 5.796875 -6.3125 Z M 5.796875 -5.59375 "/></g></g></g><g fill="#000000" fill-opacity="1"><g transform="translate(131.47372, 33.87397)"><g><path d="M 0.90625 -5.59375 L 0 -5.59375 L 0 -6.3125 L 0.8125 -6.3125 C 0.726562 -6.457031 0.660156 -6.613281 0.609375 -6.78125 C 0.554688 -6.945312 0.53125 -7.132812 0.53125 -7.34375 C 0.53125 -7.863281 0.726562 -8.285156 1.125 -8.609375 C 1.519531 -8.929688 2.046875 -9.09375 2.703125 -9.09375 C 3.648438 -9.09375 4.488281 -8.832031 5.21875 -8.3125 C 5.957031 -7.789062 6.597656 -7.097656 7.140625 -6.234375 L 6.28125 -6.234375 C 5.25 -7.648438 4.113281 -8.359375 2.875 -8.359375 C 2.394531 -8.359375 2.019531 -8.253906 1.75 -8.046875 C 1.488281 -7.847656 1.359375 -7.578125 1.359375 -7.234375 C 1.359375 -7.035156 1.390625 -6.859375 1.453125 -6.703125 C 1.515625 -6.554688 1.585938 -6.425781 1.671875 -6.3125 L 2.765625 -6.3125 L 2.765625 -5.59375 L 1.71875 -5.59375 L 1.71875 0 L 0.90625 0 Z M 0.90625 -5.59375 "/></g></g></g><g fill="#000000" fill-opacity="1"><g transform="translate(134.101737, 33.87397)"><g><path d="M 5.796875 -5.59375 L 4.734375 -5.59375 L 4.734375 0 L 3.921875 0 L 3.921875 -1.671875 C 3.742188 -1.546875 3.53125 -1.4375 3.28125 -1.34375 C 3.03125 -1.25 2.722656 -1.203125 2.359375 -1.203125 C 1.992188 -1.203125 1.664062 -1.269531 1.375 -1.40625 C 1.09375 -1.550781 0.867188 -1.75 0.703125 -2 C 0.546875 -2.257812 0.46875 -2.5625 0.46875 -2.90625 C 0.46875 -3.476562 0.660156 -3.921875 1.046875 -4.234375 C 1.429688 -4.546875 1.941406 -4.703125 2.578125 -4.703125 C 2.671875 -4.703125 2.78125 -4.695312 2.90625 -4.6875 C 3.039062 -4.675781 3.171875 -4.660156 3.296875 -4.640625 C 3.421875 -4.628906 3.519531 -4.617188 3.59375 -4.609375 L 3.546875 -3.859375 C 3.410156 -3.890625 3.257812 -3.914062 3.09375 -3.9375 C 2.9375 -3.957031 2.78125 -3.96875 2.625 -3.96875 C 2.207031 -3.96875 1.878906 -3.875 1.640625 -3.6875 C 1.398438 -3.507812 1.28125 -3.25 1.28125 -2.90625 C 1.28125 -2.5625 1.382812 -2.304688 1.59375 -2.140625 C 1.8125 -1.984375 2.078125 -1.90625 2.390625 -1.90625 C 2.734375 -1.90625 3.03125 -1.976562 3.28125 -2.125 C 3.539062 -2.28125 3.753906 -2.453125 3.921875 -2.640625 L 3.921875 -5.59375 L 0 -5.59375 L 0 -6.3125 L 5.796875 -6.3125 Z M 5.796875 -5.59375 "/></g></g></g><g fill="#000000" fill-opacity="1"><g transform="translate(139.743343, 33.87397)"><g><path d="M 2.71875 -2.265625 C 2.71875 -2.585938 2.570312 -2.875 2.28125 -3.125 C 2 -3.375 1.53125 -3.597656 0.875 -3.796875 L 1.125 -4.46875 L 4.78125 -4.46875 L 4.78125 -5.59375 L 0 -5.59375 L 0 -6.3125 L 6.65625 -6.3125 L 6.65625 -5.59375 L 5.59375 -5.59375 L 5.59375 0 L 4.78125 0 L 4.78125 -3.75 L 3.3125 -3.75 C 3.082031 -3.75 2.890625 -3.753906 2.734375 -3.765625 C 2.578125 -3.773438 2.453125 -3.785156 2.359375 -3.796875 C 2.765625 -3.585938 3.054688 -3.351562 3.234375 -3.09375 C 3.421875 -2.832031 3.515625 -2.535156 3.515625 -2.203125 C 3.515625 -1.859375 3.414062 -1.578125 3.21875 -1.359375 C 3.03125 -1.140625 2.785156 -0.984375 2.484375 -0.890625 C 2.671875 -0.785156 2.890625 -0.679688 3.140625 -0.578125 C 3.390625 -0.472656 3.628906 -0.382812 3.859375 -0.3125 L 3.53125 0.390625 C 3.1875 0.253906 2.847656 0.0859375 2.515625 -0.109375 C 2.191406 -0.316406 1.890625 -0.523438 1.609375 -0.734375 C 1.242188 -0.753906 0.941406 -0.804688 0.703125 -0.890625 C 0.472656 -0.984375 0.359375 -1.144531 0.359375 -1.375 C 0.359375 -1.53125 0.398438 -1.65625 0.484375 -1.75 C 0.578125 -1.851562 0.710938 -1.90625 0.890625 -1.90625 C 1.035156 -1.90625 1.179688 -1.867188 1.328125 -1.796875 C 1.472656 -1.734375 1.648438 -1.613281 1.859375 -1.4375 C 2.128906 -1.46875 2.335938 -1.5625 2.484375 -1.71875 C 2.640625 -1.875 2.71875 -2.054688 2.71875 -2.265625 Z M 2.71875 -2.265625 "/></g></g></g><g fill="#000000" fill-opacity="1"><g transform="translate(146.24742, 33.87397)"><g><path d="M 1.71875 -5.59375 L 1.71875 0 L 0.90625 0 L 0.90625 -5.59375 L 0 -5.59375 L 0 -6.3125 L 2.765625 -6.3125 L 2.765625 -5.59375 Z M 1.71875 -5.59375 "/></g></g></g><g fill="#000000" fill-opacity="1"><g transform="translate(148.87543, 33.87397)"><g><path d="M 0 -6.3125 L 5.765625 -6.3125 L 5.765625 -5.59375 L 4.71875 -5.59375 L 4.71875 0 L 3.90625 0 L 3.90625 -3.015625 L 2.0625 -3.015625 L 2.0625 -2.46875 C 2.0625 -2.28125 2.015625 -2.140625 1.921875 -2.046875 C 1.828125 -1.953125 1.703125 -1.90625 1.546875 -1.90625 C 1.378906 -1.90625 1.207031 -1.972656 1.03125 -2.109375 C 0.851562 -2.253906 0.695312 -2.425781 0.5625 -2.625 C 0.4375 -2.832031 0.375 -3.03125 0.375 -3.21875 C 0.375 -3.375 0.421875 -3.5 0.515625 -3.59375 C 0.609375 -3.6875 0.769531 -3.734375 1 -3.734375 L 3.90625 -3.734375 L 3.90625 -5.59375 L 0 -5.59375 Z M 0 -6.3125 "/></g></g></g><g fill="#000000" fill-opacity="1"><g transform="translate(154.506887, 33.87397)"><g/></g></g><g fill="#000000" fill-opacity="1"><g transform="translate(157.55092, 33.87397)"><g><path d="M 0.453125 -0.53125 L 2.171875 -1.546875 C 1.804688 -1.609375 1.515625 -1.75 1.296875 -1.96875 C 1.117188 -2.144531 0.988281 -2.359375 0.90625 -2.609375 C 0.832031 -2.859375 0.796875 -3.195312 0.796875 -3.625 L 0.796875 -5.59375 L 0 -5.59375 L 0 -6.3125 L 5.90625 -6.3125 L 5.90625 -5.59375 L 4.859375 -5.59375 L 4.859375 0 L 4.03125 0 L 4.03125 -1.953125 L 0.9375 0.125 Z M 4.03125 -5.59375 L 1.625 -5.59375 L 1.625 -3.734375 C 1.625 -3.460938 1.632812 -3.242188 1.65625 -3.078125 C 1.675781 -2.921875 1.707031 -2.789062 1.75 -2.6875 C 1.789062 -2.59375 1.847656 -2.507812 1.921875 -2.4375 C 2.078125 -2.28125 2.320312 -2.203125 2.65625 -2.203125 C 2.914062 -2.203125 3.164062 -2.265625 3.40625 -2.390625 C 3.65625 -2.515625 3.863281 -2.664062 4.03125 -2.84375 Z M 4.03125 -5.59375 "/></g></g></g><g fill="#000000" fill-opacity="1"><g transform="translate(163.314279, 33.87397)"><g><path d="M 6.03125 -6.3125 L 6.03125 -5.59375 L 4.984375 -5.59375 L 4.984375 0 L 4.15625 0 L 4.15625 -1.8125 C 3.96875 -1.6875 3.738281 -1.578125 3.46875 -1.484375 C 3.207031 -1.390625 2.90625 -1.34375 2.5625 -1.34375 C 1.957031 -1.34375 1.46875 -1.546875 1.09375 -1.953125 C 0.71875 -2.359375 0.484375 -2.898438 0.390625 -3.578125 C 0.804688 -3.671875 1.113281 -3.796875 1.3125 -3.953125 C 1.519531 -4.109375 1.625 -4.335938 1.625 -4.640625 C 1.625 -4.828125 1.582031 -5 1.5 -5.15625 C 1.425781 -5.320312 1.34375 -5.46875 1.25 -5.59375 L 0 -5.59375 L 0 -6.3125 Z M 1.3125 -3.046875 C 1.4375 -2.722656 1.601562 -2.476562 1.8125 -2.3125 C 2.019531 -2.144531 2.289062 -2.0625 2.625 -2.0625 C 2.96875 -2.0625 3.265625 -2.128906 3.515625 -2.265625 C 3.765625 -2.410156 3.976562 -2.582031 4.15625 -2.78125 L 4.15625 -5.59375 L 2.140625 -5.59375 C 2.335938 -5.238281 2.4375 -4.878906 2.4375 -4.515625 C 2.4375 -3.785156 2.0625 -3.296875 1.3125 -3.046875 Z M 1.3125 -3.046875 "/></g></g></g><g fill="#000000" fill-opacity="1"><g transform="translate(169.199406, 33.87397)"><g><path d="M 1.71875 -5.59375 L 1.71875 0 L 0.90625 0 L 0.90625 -5.59375 L 0 -5.59375 L 0 -6.3125 L 2.765625 -6.3125 L 2.765625 -5.59375 Z M 0.90625 -6.234375 C 0.769531 -6.765625 0.628906 -7.179688 0.484375 -7.484375 C 0.347656 -7.796875 0.195312 -8.015625 0.03125 -8.140625 C -0.132812 -8.273438 -0.332031 -8.34375 -0.5625 -8.34375 C -0.71875 -8.34375 -0.851562 -8.328125 -0.96875 -8.296875 C -1.082031 -8.265625 -1.1875 -8.234375 -1.28125 -8.203125 L -1.515625 -8.9375 C -1.253906 -9.039062 -0.945312 -9.09375 -0.59375 -9.09375 C -0.226562 -9.09375 0.0820312 -9.003906 0.34375 -8.828125 C 0.613281 -8.648438 0.851562 -8.351562 1.0625 -7.9375 C 1.28125 -7.53125 1.484375 -6.960938 1.671875 -6.234375 Z M 0.90625 -6.234375 "/></g></g></g><g fill="#000000" fill-opacity="1"><g transform="translate(171.827423, 33.87397)"><g><path d="M 2.109375 -5.59375 L 2.109375 -2.375 C 2.109375 -2.195312 2.0625 -2.054688 1.96875 -1.953125 C 1.882812 -1.859375 1.769531 -1.8125 1.625 -1.8125 C 1.445312 -1.8125 1.265625 -1.878906 1.078125 -2.015625 C 0.890625 -2.160156 0.734375 -2.332031 0.609375 -2.53125 C 0.484375 -2.738281 0.421875 -2.9375 0.421875 -3.125 C 0.421875 -3.269531 0.460938 -3.390625 0.546875 -3.484375 C 0.640625 -3.585938 0.800781 -3.640625 1.03125 -3.640625 L 1.28125 -3.640625 L 1.28125 -5.59375 L 0 -5.59375 L 0 -6.3125 L 5.859375 -6.3125 L 5.859375 -5.59375 L 4.8125 -5.59375 L 4.8125 0 L 3.984375 0 L 3.984375 -5.59375 Z M 2.109375 -5.59375 "/></g></g></g><g fill="#000000" fill-opacity="1"><g transform="translate(177.540054, 33.87397)"><g><path d="M 1.234375 -1.921875 C 0.992188 -1.921875 0.796875 -1.976562 0.640625 -2.09375 C 0.484375 -2.207031 0.40625 -2.367188 0.40625 -2.578125 C 0.40625 -2.773438 0.460938 -2.925781 0.578125 -3.03125 C 0.703125 -3.132812 0.859375 -3.1875 1.046875 -3.1875 C 1.171875 -3.1875 1.296875 -3.160156 1.421875 -3.109375 C 1.554688 -3.054688 1.726562 -2.953125 1.9375 -2.796875 C 2.269531 -2.910156 2.546875 -3.109375 2.765625 -3.390625 C 2.984375 -3.679688 3.09375 -4.050781 3.09375 -4.5 C 3.09375 -4.863281 2.992188 -5.160156 2.796875 -5.390625 C 2.597656 -5.617188 2.335938 -5.734375 2.015625 -5.734375 C 1.804688 -5.734375 1.648438 -5.6875 1.546875 -5.59375 C 1.453125 -5.5 1.40625 -5.378906 1.40625 -5.234375 C 1.40625 -5.128906 1.4375 -5.015625 1.5 -4.890625 C 1.5625 -4.773438 1.6875 -4.675781 1.875 -4.59375 C 2.070312 -4.519531 2.359375 -4.476562 2.734375 -4.46875 L 2.5625 -3.75 C 1.925781 -3.789062 1.453125 -3.945312 1.140625 -4.21875 C 0.828125 -4.5 0.671875 -4.84375 0.671875 -5.25 C 0.671875 -5.59375 0.789062 -5.867188 1.03125 -6.078125 C 1.269531 -6.296875 1.613281 -6.40625 2.0625 -6.40625 C 2.382812 -6.40625 2.679688 -6.332031 2.953125 -6.1875 C 3.234375 -6.039062 3.457031 -5.820312 3.625 -5.53125 C 3.800781 -5.25 3.890625 -4.894531 3.890625 -4.46875 C 3.890625 -4 3.769531 -3.566406 3.53125 -3.171875 C 3.300781 -2.773438 2.984375 -2.460938 2.578125 -2.234375 C 2.878906 -1.972656 3.171875 -1.679688 3.453125 -1.359375 C 3.742188 -1.035156 3.992188 -0.726562 4.203125 -0.4375 L 3.546875 0.015625 C 3.203125 -0.472656 2.890625 -0.875 2.609375 -1.1875 C 2.328125 -1.5 2.0625 -1.757812 1.8125 -1.96875 C 1.632812 -1.9375 1.441406 -1.921875 1.234375 -1.921875 Z M 6 -5.59375 L 6 0 L 5.171875 0 L 5.171875 -5.59375 L 4.265625 -5.59375 L 4.265625 -6.3125 L 7.046875 -6.3125 L 7.046875 -5.59375 Z M 6 -5.59375 "/></g></g></g><g fill="#000000" fill-opacity="1"><g transform="translate(184.439859, 33.87397)"><g><path d="M 1.71875 -5.59375 L 1.71875 0 L 0.90625 0 L 0.90625 -5.59375 L 0 -5.59375 L 0 -6.3125 L 2.765625 -6.3125 L 2.765625 -5.59375 Z M 1.71875 -5.59375 "/></g></g></g><g fill="#000000" fill-opacity="1"><g transform="translate(187.067876, 33.87397)"><g><path d="M 0 -5.59375 L 0 -6.3125 L 7.03125 -6.3125 L 7.03125 -5.59375 L 5.96875 -5.59375 L 5.96875 0 L 5.15625 0 L 5.15625 -3.59375 C 5.113281 -3.601562 5.066406 -3.609375 5.015625 -3.609375 C 4.847656 -3.609375 4.679688 -3.566406 4.515625 -3.484375 C 4.347656 -3.398438 4.1875 -3.25 4.03125 -3.03125 C 3.875 -2.820312 3.734375 -2.515625 3.609375 -2.109375 L 2.828125 -2.359375 C 2.910156 -2.660156 3.019531 -2.929688 3.15625 -3.171875 C 2.988281 -3.296875 2.820312 -3.394531 2.65625 -3.46875 C 2.5 -3.539062 2.320312 -3.578125 2.125 -3.578125 C 1.84375 -3.578125 1.628906 -3.5 1.484375 -3.34375 C 1.347656 -3.1875 1.28125 -2.988281 1.28125 -2.75 C 1.28125 -2.488281 1.351562 -2.238281 1.5 -2 C 1.644531 -1.769531 1.851562 -1.523438 2.125 -1.265625 C 2.394531 -1.015625 2.734375 -0.726562 3.140625 -0.40625 L 2.578125 0.125 C 2.179688 -0.21875 1.820312 -0.539062 1.5 -0.84375 C 1.1875 -1.15625 0.929688 -1.46875 0.734375 -1.78125 C 0.546875 -2.09375 0.453125 -2.425781 0.453125 -2.78125 C 0.453125 -3.144531 0.535156 -3.4375 0.703125 -3.65625 C 0.867188 -3.882812 1.078125 -4.050781 1.328125 -4.15625 C 1.578125 -4.257812 1.820312 -4.3125 2.0625 -4.3125 C 2.363281 -4.3125 2.632812 -4.265625 2.875 -4.171875 C 3.125 -4.078125 3.363281 -3.9375 3.59375 -3.75 C 3.976562 -4.125 4.46875 -4.3125 5.0625 -4.3125 C 5.09375 -4.3125 5.125 -4.3125 5.15625 -4.3125 L 5.15625 -5.59375 Z M 0 -5.59375 "/></g></g></g><g clip-path="url(#d941e67b19)"><g fill="#000000" fill-opacity="1"><g transform="translate(193.947383, 33.87397)"><g><path d="M 1.71875 -5.59375 L 1.71875 0 L 0.90625 0 L 0.90625 -5.59375 L 0 -5.59375 L 0 -6.3125 L 2.765625 -6.3125 L 2.765625 -5.59375 Z M 1.71875 -5.59375 "/></g></g></g></g><g fill="#000000" fill-opacity="1"><g transform="translate(71.192079, 44.824612)"><g><path d="M 1.09375 0 L 0.5625 0 L 0.5625 -5.140625 L 1.09375 -5.140625 Z M 1.09375 0 "/></g></g></g><g fill="#000000" fill-opacity="1"><g transform="translate(72.85689, 44.824612)"><g><path d="M 1.09375 0 L 0.5625 0 L 0.5625 -5.140625 L 1.09375 -5.140625 Z M 1.09375 0 "/></g></g></g><g fill="#000000" fill-opacity="1"><g transform="translate(74.521702, 44.824612)"><g><path d="M 2 -2.421875 C 0.945312 -2.671875 0.421875 -3.125 0.421875 -3.78125 C 0.421875 -4.257812 0.59375 -4.617188 0.9375 -4.859375 C 1.269531 -5.097656 1.664062 -5.21875 2.125 -5.21875 C 3.125 -5.21875 3.71875 -4.84375 3.90625 -4.09375 L 3.328125 -4.09375 C 3.222656 -4.539062 2.820312 -4.765625 2.125 -4.765625 C 1.625 -4.765625 1.273438 -4.617188 1.078125 -4.328125 C 1.003906 -4.210938 0.96875 -4.070312 0.96875 -3.90625 C 0.96875 -3.59375 1.140625 -3.347656 1.484375 -3.171875 C 1.640625 -3.085938 1.984375 -2.976562 2.515625 -2.84375 C 3.035156 -2.707031 3.414062 -2.554688 3.65625 -2.390625 C 3.976562 -2.160156 4.140625 -1.835938 4.140625 -1.421875 C 4.140625 -0.898438 3.9375 -0.503906 3.53125 -0.234375 C 3.1875 -0.015625 2.765625 0.09375 2.265625 0.09375 C 1.117188 0.09375 0.457031 -0.335938 0.28125 -1.203125 L 0.90625 -1.203125 C 1 -0.660156 1.453125 -0.390625 2.265625 -0.390625 C 2.835938 -0.390625 3.238281 -0.546875 3.46875 -0.859375 C 3.550781 -0.984375 3.59375 -1.15625 3.59375 -1.375 C 3.59375 -1.582031 3.507812 -1.753906 3.34375 -1.890625 C 3.113281 -2.085938 2.664062 -2.265625 2 -2.421875 Z M 2 -2.421875 "/></g></g></g><g fill="#000000" fill-opacity="1"><g transform="translate(78.865346, 44.824612)"><g><path d="M 3.625 0 L 0.5625 0 L 0.5625 -5.140625 L 3.625 -5.140625 L 3.625 -4.65625 L 1.09375 -4.65625 L 1.09375 -2.828125 L 3.546875 -2.828125 L 3.546875 -2.328125 L 1.09375 -2.328125 L 1.09375 -0.484375 L 3.625 -0.484375 Z M 3.625 0 "/></g></g></g><g fill="#000000" fill-opacity="1"><g transform="translate(83.057643, 44.824612)"><g><path d="M 1.09375 -2.546875 L 2.296875 -2.546875 C 2.585938 -2.546875 2.832031 -2.644531 3.03125 -2.84375 C 3.21875 -3.050781 3.3125 -3.304688 3.3125 -3.609375 C 3.3125 -3.898438 3.222656 -4.144531 3.046875 -4.34375 C 2.859375 -4.539062 2.609375 -4.640625 2.296875 -4.640625 L 1.09375 -4.640625 Z M 3.84375 -3.59375 C 3.84375 -3.144531 3.6875 -2.769531 3.375 -2.46875 C 3.09375 -2.207031 2.753906 -2.066406 2.359375 -2.046875 L 3.9375 0 L 3.21875 0 L 1.71875 -2.03125 L 1.09375 -2.03125 L 1.09375 0 L 0.5625 0 L 0.5625 -5.140625 L 2.21875 -5.140625 C 2.675781 -5.140625 3.0625 -5 3.375 -4.71875 C 3.6875 -4.40625 3.84375 -4.03125 3.84375 -3.59375 Z M 3.84375 -3.59375 "/></g></g></g><g fill="#000000" fill-opacity="1"><g transform="translate(87.17427, 44.824612)"><g/></g></g><g fill="#000000" fill-opacity="1"><g transform="translate(89.217448, 44.824612)"><g><path d="M 3.921875 -1.4375 C 3.921875 -1.226562 3.875 -1.023438 3.78125 -0.828125 C 3.6875 -0.640625 3.554688 -0.484375 3.390625 -0.359375 C 3.078125 -0.117188 2.660156 0 2.140625 0 L 0.5625 0 L 0.5625 -5.140625 L 1.953125 -5.140625 C 2.703125 -5.140625 3.191406 -4.910156 3.421875 -4.453125 C 3.503906 -4.285156 3.546875 -4.113281 3.546875 -3.9375 C 3.546875 -3.769531 3.535156 -3.640625 3.515625 -3.546875 C 3.484375 -3.441406 3.441406 -3.34375 3.390625 -3.25 C 3.273438 -3.050781 3.125 -2.910156 2.9375 -2.828125 C 3.238281 -2.753906 3.476562 -2.597656 3.65625 -2.359375 C 3.832031 -2.109375 3.921875 -1.800781 3.921875 -1.4375 Z M 3.015625 -3.859375 C 3.015625 -4.378906 2.660156 -4.640625 1.953125 -4.640625 L 1.09375 -4.640625 L 1.09375 -3.03125 L 2.109375 -3.03125 C 2.378906 -3.03125 2.597656 -3.097656 2.765625 -3.234375 C 2.929688 -3.367188 3.015625 -3.578125 3.015625 -3.859375 Z M 3.390625 -1.53125 C 3.390625 -1.6875 3.363281 -1.820312 3.3125 -1.9375 C 3.25 -2.050781 3.171875 -2.148438 3.078125 -2.234375 C 2.878906 -2.410156 2.644531 -2.5 2.375 -2.5 L 1.09375 -2.5 L 1.09375 -0.5 L 2.296875 -0.5 C 2.617188 -0.5 2.878906 -0.59375 3.078125 -0.78125 C 3.285156 -0.976562 3.390625 -1.226562 3.390625 -1.53125 Z M 3.390625 -1.53125 "/></g></g></g><g fill="#000000" fill-opacity="1"><g transform="translate(93.296236, 44.824612)"><g><path d="M 3.8125 -1.734375 L 3.8125 -1.453125 L 0.890625 -1.453125 C 0.941406 -1.171875 1.082031 -0.9375 1.3125 -0.75 C 1.539062 -0.5625 1.796875 -0.46875 2.078125 -0.46875 C 2.265625 -0.46875 2.445312 -0.515625 2.625 -0.609375 C 2.800781 -0.691406 2.945312 -0.8125 3.0625 -0.96875 L 3.671875 -0.96875 C 3.523438 -0.65625 3.3125 -0.410156 3.03125 -0.234375 C 2.738281 -0.046875 2.445312 0.046875 2.15625 0.046875 C 1.863281 0.046875 1.613281 0.00390625 1.40625 -0.078125 C 1.195312 -0.171875 1.015625 -0.296875 0.859375 -0.453125 C 0.515625 -0.785156 0.34375 -1.191406 0.34375 -1.671875 C 0.34375 -2.148438 0.515625 -2.5625 0.859375 -2.90625 C 1.191406 -3.25 1.597656 -3.421875 2.078125 -3.421875 C 2.546875 -3.421875 2.953125 -3.253906 3.296875 -2.921875 C 3.640625 -2.585938 3.8125 -2.191406 3.8125 -1.734375 Z M 3.265625 -1.90625 C 3.203125 -2.195312 3.054688 -2.429688 2.828125 -2.609375 C 2.609375 -2.796875 2.359375 -2.890625 2.078125 -2.890625 C 1.640625 -2.890625 1.300781 -2.695312 1.0625 -2.3125 C 0.976562 -2.1875 0.925781 -2.050781 0.90625 -1.90625 Z M 3.265625 -1.90625 "/></g></g></g><g fill="#000000" fill-opacity="1"><g transform="translate(97.420427, 44.824612)"><g><path d="M 2.28125 -2.640625 C 2.15625 -2.753906 2.023438 -2.8125 1.890625 -2.8125 C 1.742188 -2.8125 1.625 -2.769531 1.53125 -2.6875 C 1.4375 -2.613281 1.351562 -2.519531 1.28125 -2.40625 C 1.15625 -2.1875 1.09375 -1.9375 1.09375 -1.65625 L 1.09375 0 L 0.5625 0 L 0.5625 -3.328125 L 1.09375 -3.328125 L 1.09375 -2.640625 L 1.125 -2.78125 C 1.300781 -3.1875 1.570312 -3.390625 1.9375 -3.390625 C 2.0625 -3.390625 2.175781 -3.367188 2.28125 -3.328125 Z M 2.28125 -2.640625 "/></g></g></g><g fill="#000000" fill-opacity="1"><g transform="translate(99.773864, 44.824612)"><g><path d="M 1.09375 0 L 0.5625 0 L 0.5625 -5.671875 L 1.09375 -5.671875 L 1.09375 -2.75 C 1.207031 -2.9375 1.347656 -3.09375 1.515625 -3.21875 C 1.703125 -3.332031 1.910156 -3.390625 2.140625 -3.390625 C 2.378906 -3.390625 2.570312 -3.359375 2.71875 -3.296875 C 2.863281 -3.222656 2.988281 -3.128906 3.09375 -3.015625 C 3.289062 -2.773438 3.390625 -2.460938 3.390625 -2.078125 L 3.390625 0 L 2.859375 0 L 2.859375 -2.078125 C 2.859375 -2.296875 2.8125 -2.484375 2.71875 -2.640625 C 2.625 -2.785156 2.460938 -2.859375 2.234375 -2.859375 C 2.003906 -2.859375 1.816406 -2.828125 1.671875 -2.765625 C 1.535156 -2.679688 1.425781 -2.578125 1.34375 -2.453125 C 1.175781 -2.210938 1.09375 -1.859375 1.09375 -1.390625 Z M 1.09375 0 "/></g></g></g><g fill="#000000" fill-opacity="1"><g transform="translate(103.625631, 44.824612)"><g><path d="M 3.21875 -1.65625 C 3.21875 -1.976562 3.101562 -2.265625 2.875 -2.515625 C 2.65625 -2.753906 2.378906 -2.875 2.046875 -2.875 C 1.710938 -2.875 1.429688 -2.753906 1.203125 -2.515625 C 0.984375 -2.265625 0.875 -1.976562 0.875 -1.65625 C 0.875 -1.34375 0.984375 -1.0625 1.203125 -0.8125 C 1.429688 -0.570312 1.710938 -0.453125 2.046875 -0.453125 C 2.378906 -0.453125 2.65625 -0.570312 2.875 -0.8125 C 3.101562 -1.0625 3.21875 -1.34375 3.21875 -1.65625 Z M 3.75 0 L 3.21875 0 L 3.21875 -0.5625 C 3.1875 -0.519531 3.15625 -0.484375 3.125 -0.453125 C 2.800781 -0.0976562 2.410156 0.078125 1.953125 0.078125 C 1.492188 0.078125 1.109375 -0.0976562 0.796875 -0.453125 C 0.492188 -0.796875 0.34375 -1.195312 0.34375 -1.65625 C 0.34375 -2.125 0.492188 -2.53125 0.796875 -2.875 C 1.109375 -3.226562 1.492188 -3.40625 1.953125 -3.40625 C 2.410156 -3.40625 2.800781 -3.226562 3.125 -2.875 C 3.15625 -2.84375 3.1875 -2.804688 3.21875 -2.765625 L 3.21875 -3.328125 L 3.75 -3.328125 Z M 3.75 0 "/></g></g></g><g fill="#000000" fill-opacity="1"><g transform="translate(107.939007, 44.824612)"><g><path d="M 4.78125 -0.015625 L 4.78125 -2.09375 C 4.78125 -2.4375 4.675781 -2.679688 4.46875 -2.828125 C 4.382812 -2.867188 4.265625 -2.890625 4.109375 -2.890625 C 3.953125 -2.890625 3.804688 -2.84375 3.671875 -2.75 C 3.535156 -2.65625 3.425781 -2.539062 3.34375 -2.40625 C 3.320312 -2.351562 3.296875 -2.289062 3.265625 -2.21875 C 3.265625 -2.175781 3.265625 -2.132812 3.265625 -2.09375 L 3.265625 -0.015625 L 2.734375 -0.015625 L 2.734375 -2.09375 C 2.734375 -2.4375 2.625 -2.679688 2.40625 -2.828125 C 2.332031 -2.867188 2.21875 -2.890625 2.0625 -2.890625 C 1.90625 -2.890625 1.757812 -2.84375 1.625 -2.75 C 1.488281 -2.65625 1.378906 -2.539062 1.296875 -2.40625 C 1.191406 -2.21875 1.125 -1.988281 1.09375 -1.71875 L 1.09375 -0.015625 L 0.5625 -0.015625 L 0.5625 -3.34375 L 1.09375 -3.34375 L 1.09375 -2.8125 C 1.195312 -2.988281 1.320312 -3.128906 1.46875 -3.234375 C 1.644531 -3.359375 1.847656 -3.421875 2.078125 -3.421875 C 2.304688 -3.421875 2.492188 -3.382812 2.640625 -3.3125 C 2.773438 -3.238281 2.894531 -3.140625 3 -3.015625 C 3.050781 -2.941406 3.09375 -2.863281 3.125 -2.78125 C 3.226562 -2.96875 3.363281 -3.117188 3.53125 -3.234375 C 3.695312 -3.359375 3.894531 -3.421875 4.125 -3.421875 C 4.363281 -3.421875 4.550781 -3.382812 4.6875 -3.3125 C 4.832031 -3.238281 4.953125 -3.140625 5.046875 -3.015625 C 5.222656 -2.773438 5.3125 -2.46875 5.3125 -2.09375 L 5.3125 -0.015625 Z M 4.78125 -0.015625 "/></g></g></g><g fill="#000000" fill-opacity="1"><g transform="translate(113.712878, 44.824612)"><g><path d="M 1.09375 1.890625 L 0.5625 1.890625 L 0.5625 -3.328125 L 1.09375 -3.328125 L 1.09375 -2.765625 C 1.125 -2.804688 1.15625 -2.84375 1.1875 -2.875 C 1.5 -3.226562 1.890625 -3.40625 2.359375 -3.40625 C 2.816406 -3.40625 3.203125 -3.226562 3.515625 -2.875 C 3.816406 -2.53125 3.96875 -2.125 3.96875 -1.65625 C 3.96875 -1.195312 3.816406 -0.796875 3.515625 -0.453125 C 3.203125 -0.0976562 2.816406 0.078125 2.359375 0.078125 C 1.890625 0.078125 1.5 -0.0976562 1.1875 -0.453125 C 1.15625 -0.484375 1.125 -0.519531 1.09375 -0.5625 Z M 3.4375 -1.65625 C 3.4375 -1.976562 3.328125 -2.265625 3.109375 -2.515625 C 2.878906 -2.753906 2.597656 -2.875 2.265625 -2.875 C 1.929688 -2.875 1.65625 -2.753906 1.4375 -2.515625 C 1.207031 -2.265625 1.09375 -1.976562 1.09375 -1.65625 C 1.09375 -1.34375 1.207031 -1.0625 1.4375 -0.8125 C 1.65625 -0.570312 1.929688 -0.453125 2.265625 -0.453125 C 2.597656 -0.453125 2.878906 -0.570312 3.109375 -0.8125 C 3.328125 -1.0625 3.4375 -1.34375 3.4375 -1.65625 Z M 3.4375 -1.65625 "/></g></g></g><g fill="#000000" fill-opacity="1"><g transform="translate(118.026254, 44.824612)"><g><path d="M 2.859375 -0.5625 C 2.617188 -0.144531 2.25 0.0625 1.75 0.0625 C 1.375 0.0625 1.082031 -0.0546875 0.875 -0.296875 C 0.664062 -0.546875 0.5625 -0.863281 0.5625 -1.25 L 0.5625 -3.328125 L 1.09375 -3.328125 L 1.09375 -1.25 C 1.09375 -1.03125 1.144531 -0.847656 1.25 -0.703125 C 1.34375 -0.546875 1.503906 -0.46875 1.734375 -0.46875 C 2.148438 -0.46875 2.441406 -0.597656 2.609375 -0.859375 C 2.773438 -1.109375 2.859375 -1.46875 2.859375 -1.9375 L 2.859375 -3.328125 L 3.390625 -3.328125 L 3.390625 0 L 2.859375 0 Z M 2.859375 -0.5625 "/></g></g></g><g fill="#000000" fill-opacity="1"><g transform="translate(121.878021, 44.824612)"><g><path d="M 2.28125 -2.640625 C 2.15625 -2.753906 2.023438 -2.8125 1.890625 -2.8125 C 1.742188 -2.8125 1.625 -2.769531 1.53125 -2.6875 C 1.4375 -2.613281 1.351562 -2.519531 1.28125 -2.40625 C 1.15625 -2.1875 1.09375 -1.9375 1.09375 -1.65625 L 1.09375 0 L 0.5625 0 L 0.5625 -3.328125 L 1.09375 -3.328125 L 1.09375 -2.640625 L 1.125 -2.78125 C 1.300781 -3.1875 1.570312 -3.390625 1.9375 -3.390625 C 2.0625 -3.390625 2.175781 -3.367188 2.28125 -3.328125 Z M 2.28125 -2.640625 "/></g></g></g></svg>